<svg width="238" height="136" viewBox="0 0 238 136" fill="none" xmlns="http://www.w3.org/2000/svg">
<g clip-path="url(#clip0)">
<path opacity="0.1" d="M143.075 98.0236C147.673 97.761 153.377 94.6367 157.812 93.2549C163.062 91.6236 168.332 90.0542 173.624 88.5466C192.044 83.2957 210.661 78.8216 229.477 75.1242C231.233 74.7782 232.991 74.4406 234.753 74.1113C232.009 68.1716 227.758 63.0569 222.424 59.2778C222.561 57.9775 222.63 56.6711 222.632 55.3636C222.632 34.7006 206.149 17.9497 185.809 17.9497C179.546 17.943 173.389 19.5623 167.938 22.6496C153.541 13.1622 134.751 7.42015 114.192 7.42015C84.9791 7.42015 59.3337 19.0147 44.802 36.4743L113.098 48.0334L154.985 55.1198C107.233 56.5475 59.3337 57.9668 11.7192 54.6154C5.43381 60.7082 1.45562 68.7986 0.464466 77.5042C-0.526683 86.2097 1.53074 94.9899 6.28511 102.344C6.28511 103.092 6.31632 103.834 6.37249 104.57C7.58537 104.918 8.75665 105.256 9.80726 105.477C26.6739 109.046 43.6488 112.034 60.7318 114.439C48.1432 122.215 32.8125 123.316 18.2912 126.609C25.323 132.424 34.8722 135.988 45.3949 135.988H202.075C219.041 135.988 232.793 124.156 232.793 109.558C235.339 105.352 237.035 100.686 237.786 95.8247C206.392 98.8614 174.608 96.2249 143.075 98.0236Z" fill="#F9A826"/>
<path opacity="0.1" d="M238 89.607C238.017 83.5907 236.589 77.6586 233.837 72.3111C231.086 66.9635 227.091 62.3574 222.189 58.8814C222.325 57.5817 222.394 56.276 222.397 54.9693C222.397 34.3062 205.906 17.5615 185.574 17.5615C179.311 17.5548 173.153 19.1733 167.701 22.2594C153.304 12.7678 134.512 7.0237 113.953 7.0237C80.5124 7.0237 51.7277 22.2281 38.9622 44.0312C38.2528 43.9895 37.5392 43.9666 36.8194 43.9666C16.4854 43.9666 -0.00401745 60.7176 -0.00401745 81.3806C-0.0182699 88.6792 2.0866 95.8243 6.05416 101.946C6.05416 120.537 23.5692 135.608 45.1661 135.608H201.851C218.815 135.608 232.566 123.774 232.566 109.176C236.134 103.275 238.014 96.5057 238 89.607Z" fill="#F9A826"/>
<path d="M194.369 66.6852C194.072 66.4564 193.723 66.3034 193.354 66.2392C192.965 66.1495 192.568 66.0933 192.172 66.0307L187.05 65.2908C186.533 65.1947 186.006 65.1667 185.482 65.2075C185.219 65.2291 184.963 65.3029 184.728 65.4245C184.494 65.5462 184.286 65.7133 184.117 65.9161C183.964 66.1048 183.881 66.3402 183.88 66.5831C183.908 66.8275 183.988 67.0632 184.113 67.275C184.162 67.374 184.205 67.4764 184.24 67.5814C184.289 67.8171 184.35 68.0502 184.423 68.2796C184.445 68.3293 184.475 68.3756 184.51 68.4172C184.511 68.429 184.511 68.4408 184.51 68.4526C184.454 68.7402 184.635 69.0404 184.554 69.3176C184.483 69.5552 184.252 69.699 184.107 69.897C184.009 70.0374 183.956 70.2034 183.952 70.3743C183.948 70.5451 183.995 70.7133 184.086 70.8578C184.242 71.0996 184.525 71.2642 184.606 71.5414C184.712 71.9062 184.425 72.2584 184.169 72.5398C183.698 73.0578 183.263 73.6072 182.867 74.1842C182.755 74.3262 182.683 74.4952 182.659 74.674C182.636 75.0367 182.983 75.3556 182.923 75.7161C182.875 75.9996 182.598 76.1726 182.359 76.3414C181.475 76.925 180.765 77.8629 180.695 78.9238C180.468 77.2359 179.77 75.6465 178.681 74.3385C178.383 73.98 178.057 73.6194 177.934 73.1651C177.888 72.9837 177.88 72.7899 177.817 72.6148C177.609 72.0625 176.948 71.8249 176.659 71.3163C176.451 70.9579 176.451 70.4972 176.193 70.1825C175.935 69.8678 175.529 69.7969 175.306 69.4926C175.195 69.2865 175.101 69.0719 175.023 68.8507C174.93 68.6704 174.799 68.5125 174.639 68.388C174.608 68.3634 174.576 68.3405 174.543 68.3192C174.577 68.2883 174.605 68.2504 174.624 68.208C174.643 68.1656 174.653 68.1197 174.653 68.0733C174.653 67.8294 174.412 67.6689 174.202 67.5481C173.931 67.3938 173.667 67.2271 173.409 67.0541C173.69 66.9228 173.934 66.7229 174.118 66.4726C174.349 66.0993 174.445 65.6577 174.389 65.2221C174.375 64.8705 174.244 64.5338 174.017 64.2654C173.885 64.1258 173.721 64.0257 173.584 63.8944C173.228 63.5463 173.107 63.0315 172.96 62.5563C172.764 61.9311 172.458 61.2745 171.888 60.9431C171.614 60.7827 171.293 60.7076 171.025 60.5388C170.756 60.37 170.532 60.0511 170.625 59.7447C170.688 59.5363 170.881 59.3925 171.012 59.2153C171.169 58.9862 171.229 58.7046 171.179 58.4315C171.13 58.1583 170.975 57.9158 170.748 57.7564C170.594 57.6584 170.405 57.5729 170.374 57.3937C170.253 57.3624 170.144 57.2976 170.059 57.2069C169.973 57.1162 169.915 57.0033 169.891 56.881C169.844 56.6359 169.844 56.3841 169.891 56.139C169.945 55.7513 169.999 55.3651 170.051 54.9802C170.143 55.0183 170.241 55.038 170.34 55.038C170.44 55.038 170.538 55.0183 170.63 54.9802C170.81 55.2729 171.019 55.5466 171.254 55.7972C171.887 56.5467 172.381 57.4045 172.71 58.3295C172.829 58.663 172.949 59.0361 173.257 59.2132C173.363 59.2737 173.484 59.3049 173.588 59.3695C173.716 59.4591 173.826 59.5723 173.912 59.703C174.162 60.0344 174.412 60.3637 174.659 60.6951L174.672 60.7451C174.679 60.7745 174.69 60.8026 174.705 60.8285C174.751 60.8805 174.815 60.9132 174.884 60.9202C175.65 61.0974 176.509 61.2599 177.173 60.841C177.772 60.4659 178.034 59.7239 178.541 59.2278C178.901 58.8756 179.411 58.6026 179.513 58.1065C179.392 58.069 179.272 58.0251 179.155 57.9752C179.259 57.871 179.363 57.7501 179.505 57.6125C179.71 57.4109 179.896 57.1896 180.058 56.9518C180.234 56.6585 180.373 56.345 180.474 56.0181C180.875 54.8732 181.277 53.7275 181.681 52.5812C181.872 52.0393 182.064 51.4933 182.305 50.9659C182.555 50.3949 182.85 49.8467 183.122 49.2861C183.826 47.828 184.369 46.2975 184.741 44.7216C184.807 44.5066 184.829 44.2804 184.806 44.0567C184.747 43.6962 184.475 43.4127 184.215 43.1563C183.953 42.8727 183.655 42.6253 183.328 42.4206C183.164 42.3184 182.982 42.2499 182.791 42.2192C182.6 42.1884 182.405 42.1959 182.218 42.2414C181.685 42.3977 181.35 42.9438 181.227 43.4919C181.104 44.0401 181.15 44.6049 181.098 45.1593C181.023 45.9617 180.749 46.7371 180.682 47.5416C180.647 48.0063 180.682 48.4774 180.626 48.9422C180.524 49.5504 180.312 50.1351 180.002 50.6679C179.327 51.9386 178.414 53.0667 177.312 53.9902C177.185 54.0965 177.054 54.1986 176.929 54.3132C176.929 54.2236 176.944 54.1319 176.956 54.0423C176.866 54.0659 176.777 54.0973 176.692 54.1361C176.702 54.0308 176.692 53.9245 176.661 53.8234C176.494 53.3253 175.754 53.1982 175.621 52.6917C175.598 52.5664 175.586 52.4396 175.585 52.3124C175.541 51.8684 175.24 51.4933 175.136 51.0618C175.04 50.6637 175.113 50.2281 174.928 49.8592C174.77 49.6286 174.584 49.4185 174.374 49.234C174.124 48.9479 173.944 48.6076 173.848 48.2398C173.821 48.1377 173.796 48.0314 173.767 47.9292C173.798 47.698 173.773 47.4625 173.692 47.2435C173.503 46.7725 173.014 46.4703 172.837 45.993C172.7 45.622 172.76 45.1593 172.5 44.8717C172.362 44.7342 172.193 44.632 172.007 44.5736C171.055 44.2021 170.055 43.9657 169.038 43.8712C168.468 43.8191 167.84 43.79 167.432 43.3877C166.956 42.9208 166.933 42.0809 166.375 41.7203C165.884 41.4014 165.189 41.6369 164.809 42.0851C164.751 42.151 164.699 42.2206 164.65 42.2935C164.581 42.0141 164.566 41.7239 164.607 41.4389C164.607 41.3681 164.621 41.2951 164.628 41.2305C165.567 40.923 166.366 40.2906 166.883 39.4464C166.883 39.4464 166.883 39.4464 166.883 39.4589L166.908 39.5235C166.968 39.6757 167.064 39.8216 167.205 39.8383C167.299 39.8371 167.39 39.8041 167.463 39.7445C167.589 39.6571 167.704 39.5565 167.809 39.4443C167.861 39.386 167.911 39.3255 167.958 39.263C168.054 39.1329 168.136 38.9932 168.204 38.8462C168.307 38.625 168.377 38.3897 168.412 38.148C168.449 37.9062 168.453 37.6582 168.495 37.4164C168.534 37.2292 168.585 37.0448 168.647 36.8641C168.668 36.8036 168.689 36.7432 168.707 36.6827C168.726 36.6223 168.753 36.541 168.774 36.4743C168.904 36.0457 168.974 35.6009 168.982 35.1529C168.982 35.0779 168.982 35.0029 168.982 34.9278C168.974 34.6354 168.909 34.3475 168.789 34.0809C168.669 33.8143 168.497 33.5743 168.283 33.3751C167.925 33.0812 167.451 32.9582 167.189 32.5601C167.018 32.2934 166.981 31.9495 166.881 31.6368C166.773 31.2627 166.562 30.9263 166.273 30.6659C165.984 30.4054 165.628 30.2313 165.245 30.1633C164.785 30.1126 164.322 30.2401 163.951 30.5197L163.922 30.5426C163.716 30.7004 163.541 30.8955 163.406 31.1179C163.132 31.042 162.88 30.8987 162.674 30.701C162.466 30.5072 162.306 30.2633 162.096 30.0757C161.899 29.8956 161.658 29.7715 161.398 29.7165C161.137 29.6615 160.867 29.6776 160.614 29.7631C160.355 29.8674 160.123 30.0319 159.939 30.2431C159.755 30.4543 159.624 30.7062 159.556 30.9782C159.441 31.4076 159.462 31.9015 159.223 32.26C159.037 32.5393 158.734 32.6769 158.522 32.9311C158.39 33.0921 158.3 33.2833 158.259 33.4876C158.234 33.6019 158.222 33.7187 158.224 33.8357C158.224 33.8878 158.224 33.9399 158.237 33.9899C158.237 33.9899 158.237 34.0066 158.237 34.0149C158.244 34.072 158.256 34.1285 158.272 34.1838C158.331 34.395 158.437 34.5902 158.582 34.7548C158.719 34.9124 158.891 35.0365 159.083 35.1175C159.162 35.1482 159.243 35.174 159.325 35.1946L159.572 35.2509L159.66 35.2717C159.361 35.8337 159.195 36.4569 159.175 37.0933C159.154 37.7297 159.281 38.3622 159.543 38.942C159.543 39.0004 159.528 39.0588 159.522 39.1171C159.488 39.9378 159.525 40.7599 159.63 41.5744C159.66 41.8975 159.676 42.2539 159.479 42.5102C159.389 42.6111 159.287 42.7013 159.177 42.7791C159.289 42.6332 159.404 42.4894 159.52 42.3456C159.227 42.0496 158.763 42.0121 158.347 42.0413C157.542 42.1015 156.76 42.3408 156.058 42.7416C155.592 43.0105 155.114 43.3669 154.581 43.3043C154.267 43.2689 153.957 43.0959 153.651 43.1793C153.479 43.2497 153.319 43.3452 153.175 43.4627C153.061 43.5445 152.924 43.5869 152.784 43.5836C152.457 43.1814 151.952 42.9083 151.56 42.5811C151.115 42.1841 150.708 41.7467 150.343 41.2743C149.669 40.4594 148.997 39.6423 148.336 38.8191C147.778 38.1271 147.206 37.3789 147.108 36.4931C147.098 36.4052 147.094 36.3168 147.094 36.2284C147.107 35.8075 147.16 35.3888 147.252 34.9778C147.277 34.8786 147.277 34.7748 147.252 34.6756C147.19 34.4672 146.95 34.3901 146.744 34.3442C146.771 34.1838 146.79 34.0191 146.8 33.8628C146.917 32.0703 146.79 30.2487 147.169 28.4938C147.312 27.8185 147.547 27.1349 148.032 26.6451C148.791 25.876 150.063 25.6905 150.645 24.7797C151.132 24.0211 150.938 22.9477 150.327 22.2786C149.715 21.6096 148.773 21.3366 147.876 21.3699C147.624 21.3613 147.376 21.428 147.162 21.5617C146.963 21.7392 146.814 21.9664 146.73 22.2203L145.837 24.3941C145.578 24.9601 145.36 25.5438 145.184 26.1407C144.934 27.0536 144.878 28.0165 144.681 28.9378C144.681 29.6464 144.225 30.5301 143.975 31.1825C143.696 31.9161 143.395 32.6414 143.143 33.3897C143.081 33.5772 142.862 34.1337 142.727 34.6402C142.676 34.67 142.628 34.7057 142.586 34.7465C142.477 34.886 142.378 35.0329 142.29 35.1863C142.101 35.4364 141.793 35.5698 141.585 35.8115C141.377 36.0533 141.333 36.4972 141.622 36.6181C141.681 36.6379 141.742 36.6512 141.803 36.6577C141.841 36.6609 141.879 36.6672 141.916 36.6765C142.228 36.764 142.35 37.1579 142.305 37.4831C142.259 37.8082 142.097 38.1084 142.07 38.4335C142.013 39.0087 142.35 39.5444 142.675 40.0279C143.011 40.5521 143.382 41.0528 143.786 41.5265C144.079 41.8558 144.41 42.1518 144.705 42.4686C145.831 43.6274 146.726 44.9821 147.737 46.241C148.1 46.7161 148.514 47.1508 148.97 47.5374C149.268 47.7709 149.58 47.986 149.904 48.1814L151.644 49.2861C151.841 49.4309 152.064 49.5363 152.301 49.5966C152.378 49.607 152.457 49.607 152.534 49.5966C152.545 49.6487 152.553 49.6987 152.565 49.7508C152.701 50.2969 152.998 50.793 153.031 51.3494C153.065 51.9059 153.015 52.4749 153.054 53.0377C153.092 53.5566 153.206 54.0798 153.235 54.5904C153.293 55.5742 153.052 56.5454 152.819 57.5083C152.468 58.9173 152.255 60.3554 151.571 61.633C151.379 61.9853 151.155 62.3437 151.155 62.746C151.155 62.7939 151.155 62.844 151.167 62.8919L150.855 63.0691C150.764 63.1212 150.672 63.1733 150.589 63.2275C150.194 63.4859 149.771 63.7714 149.609 64.2175C149.478 64.578 149.538 64.9907 149.38 65.3409C149.373 65.3566 149.364 65.3719 149.355 65.3867C149.189 65.7119 148.858 65.9536 148.783 66.31C148.727 66.5831 148.835 66.8728 148.783 67.1437C148.783 67.1437 148.783 67.1437 148.783 67.1541C148.736 67.2902 148.698 67.4295 148.671 67.571C148.669 67.6172 148.673 67.6635 148.683 67.7085C148.723 67.8665 148.81 68.0083 148.933 68.115C149.008 68.187 149.089 68.2519 149.176 68.3088C149.265 68.3672 149.357 68.4214 149.451 68.4714L149.505 68.5005C149.584 68.5422 149.663 68.5818 149.744 68.6194L149.798 68.6423C149.892 68.684 149.988 68.7215 150.083 68.7548L150.15 68.7757C150.225 68.8007 150.302 68.8236 150.379 68.8424L150.431 68.859L150.479 68.8695L150.687 68.9132L150.764 68.9278C150.855 68.9431 150.949 68.9556 151.045 68.9653H151.128C151.198 68.9653 151.267 68.9758 151.336 68.9778H151.434C151.506 68.9778 151.577 68.9778 151.642 68.9778H151.716C151.814 68.9778 151.912 68.9632 152.01 68.9507H152.041C152.128 68.9382 152.216 68.9236 152.303 68.9049L152.37 68.8903C152.451 68.8715 152.532 68.8528 152.613 68.8278L152.657 68.8153C152.755 68.7861 152.852 68.7548 152.948 68.7173C153.279 68.581 153.6 68.4215 153.909 68.24C154.117 68.1254 154.325 68.0087 154.533 67.9024C154.688 67.8245 154.846 67.7549 155.008 67.694C155.401 67.5256 155.829 67.4541 156.256 67.4855C156.467 67.5143 156.675 67.5567 156.88 67.6127C156.88 67.6356 156.88 67.6585 156.88 67.6814C157.049 68.6819 157.216 69.6823 157.381 70.6827C157.654 70.4863 157.942 70.3127 158.243 70.1638C158.187 70.3148 158.149 70.4724 158.133 70.6327C158.12 70.7568 158.12 70.8817 158.133 71.0058C158.151 71.2038 158.193 71.4226 158.074 71.579C158.001 71.6748 157.866 71.729 157.827 71.8374C157.798 71.9482 157.791 72.0636 157.806 72.1771C157.797 72.3067 157.743 72.4289 157.652 72.5214C157.561 72.614 157.44 72.6708 157.311 72.6815C157.37 72.8493 157.372 73.0323 157.315 73.2009C157.258 73.3696 157.146 73.5141 156.997 73.6111C156.91 73.653 156.828 73.7063 156.755 73.7695C156.684 73.8616 156.636 73.9696 156.616 74.0842C156.341 75.1163 155.775 76.0475 154.987 76.7666C154.691 76.9995 154.421 77.2636 154.182 77.5544C154.034 77.7796 153.912 78.0209 153.818 78.2735C153.263 79.6324 152.7 80.992 152.128 82.3523C151.812 83.1131 151.504 83.8863 151.404 84.7054C151.155 86.9522 149.158 88.8572 149.532 91.0873C149.608 91.6444 149.832 92.1707 150.181 92.6109C150.597 93.1132 151.221 93.4008 151.845 93.6342C153.449 94.2595 155.141 94.6013 156.826 94.9452L159.472 95.4892C159.992 95.6089 160.518 95.6924 161.049 95.7393C161.688 95.7831 162.343 95.7226 162.965 95.8852C163.35 95.9852 163.718 96.1708 164.116 96.1916C164.457 96.2104 164.877 96.1374 165.079 96.4167C165.281 96.696 165.125 97.0649 165.316 97.3129C165.624 97.7068 166.375 97.3129 166.71 97.6839C166.802 97.8264 166.872 97.9816 166.918 98.1445C166.969 98.2453 167.04 98.3346 167.126 98.4071C167.147 98.5248 167.155 98.6442 167.151 98.7635C167.108 99.2475 167.007 99.7247 166.852 100.185C166.602 101.031 166.353 101.878 166.105 102.726C166.01 103.025 165.94 103.332 165.897 103.643C165.881 103.794 165.881 103.946 165.897 104.097C165.94 104.558 166.205 105.033 166.644 105.183C166.984 105.273 167.346 105.228 167.655 105.058C167.952 104.902 168.231 104.713 168.487 104.495C168.947 104.146 169.352 103.729 169.687 103.257C170.727 101.698 170.39 99.5889 171.121 97.8652C171.605 96.7147 172.55 95.781 172.864 94.568C172.937 94.3372 172.946 94.0906 172.889 93.8552C172.758 93.4383 172.315 93.2007 171.901 93.0507H171.882C171.542 92.9294 171.194 92.8298 170.842 92.7526C170.754 92.7339 170.665 92.7193 170.575 92.7047C170.378 92.5433 170.22 92.3378 170.116 92.1044C170.099 91.9804 170.067 91.8591 170.018 91.7438C169.985 91.6942 169.94 91.6531 169.888 91.6241C169.836 91.5951 169.778 91.579 169.718 91.5771C169.51 91.5563 169.232 91.6313 169.005 91.6146C168.541 91.5813 168.233 91.1248 167.817 90.9143C167.401 90.7038 166.949 90.7559 166.506 90.7872C166.348 90.8089 166.187 90.799 166.032 90.758C165.847 90.6728 165.678 90.5564 165.533 90.4141C165.276 90.2145 164.978 90.0773 164.66 90.0132C164.341 89.9492 164.013 89.9602 163.7 90.0452C163.501 90.1258 163.29 90.1736 163.076 90.1869C162.67 90.164 162.383 89.8014 162.083 89.5262C161.264 88.7738 160.096 88.5758 159.102 88.0819C158.95 88.0251 158.823 87.9157 158.744 87.7734C158.63 87.4899 158.888 87.2065 159.121 87.0126L160.831 85.5891C162.703 84.0301 165.044 82.8567 165.913 80.5703C166.004 80.2638 166.145 79.9743 166.329 79.7137C166.397 79.6342 166.474 79.5641 166.56 79.5053C166.939 79.2597 167.397 79.1701 167.84 79.2552C168.379 79.3761 168.891 79.5997 169.346 79.9138C170.091 80.3654 170.815 80.8517 171.52 81.3727C172.218 81.8724 172.882 82.4183 173.507 83.0068C174.599 84.0489 175.508 85.2848 176.525 86.4082C177.543 87.5316 178.706 88.58 180.118 89.1177C181.531 89.6555 183.239 89.6325 184.452 88.7301C185.852 87.688 186.301 85.8246 186.655 84.1156C187.435 83.3611 187.67 82.2127 188.051 81.1977C188.29 80.5536 188.596 79.9471 188.854 79.3052C189.162 78.5507 189.403 77.7712 189.645 76.9938C189.918 76.2131 190.104 75.4043 190.198 74.5823C190.298 73.2838 189.95 71.902 190.315 70.6827C190.795 70.5764 191.232 70.3055 191.704 70.1471C192.407 69.9157 193.161 69.9533 193.905 69.9574H193.953C194.21 69.9848 194.468 69.9238 194.685 69.7844C194.935 69.576 194.975 69.2196 194.987 68.8965C195.016 68.0983 194.966 67.2021 194.369 66.6852ZM164.226 31.1324C164.054 31.1751 163.876 31.1878 163.7 31.17L164.226 31.1324Z" fill="url(#paint0_linear)"/>
<path d="M165.046 44.3166C164.794 44.531 164.499 44.6881 164.18 44.7773L162.705 45.3067C161.904 45.5943 161.068 45.884 160.223 45.7798C159.751 45.7214 157.727 45.4234 157.421 45.0545C156.955 44.4834 158.588 43.6434 159.146 43.162C159.272 43.071 159.389 42.9676 159.495 42.8535C159.703 42.5992 159.676 42.2428 159.647 41.9219C159.541 41.1087 159.505 40.288 159.539 39.4687C159.555 39.2734 159.583 39.0792 159.622 38.8872C159.83 37.9285 160.721 38.2786 161.424 38.5329C162.27 38.8084 163.089 39.1636 163.868 39.5938C164.106 39.7164 164.312 39.8918 164.472 40.1065C164.779 40.5734 164.657 41.1861 164.607 41.7739C164.563 42.2303 164.565 42.668 164.85 42.9994C164.994 43.1261 165.125 43.2656 165.243 43.4163C165.31 43.5679 165.327 43.7369 165.291 43.8988C165.256 44.0606 165.17 44.2069 165.046 44.3166Z" fill="#BE6F72"/>
<path d="M144.67 29.2959C144.878 28.3726 144.924 27.4201 145.174 26.5051C145.35 25.9102 145.568 25.3286 145.827 24.7648L146.744 22.6201C146.828 22.3669 146.978 22.1404 147.177 21.9636C147.391 21.8309 147.639 21.7642 147.891 21.7718C148.787 21.7385 149.73 22.0178 150.342 22.6785C150.953 23.3392 151.147 24.4084 150.66 25.1649C150.077 26.0757 148.806 26.2592 148.047 27.0262C147.562 27.516 147.327 28.1975 147.183 28.8707C146.805 30.6214 146.932 32.4368 146.815 34.2251C146.778 34.7816 146.67 35.4172 146.191 35.7049C145.902 35.8468 145.58 35.9094 145.259 35.8862L143.894 35.9091C143.665 35.9091 142.835 36.0529 142.684 35.88C142.417 35.5777 143.025 34.0729 143.135 33.7374C143.38 32.9933 143.682 32.268 143.967 31.5364C144.215 30.8841 144.67 30.0024 144.67 29.2959Z" fill="#BE6F72"/>
<path d="M172.849 94.7741C172.535 95.9788 171.591 96.9167 171.106 98.0651C170.376 99.7846 170.704 101.888 169.673 103.442C169.338 103.915 168.933 104.333 168.472 104.682C168.217 104.9 167.938 105.088 167.64 105.243C167.332 105.414 166.969 105.458 166.629 105.368C166.19 105.218 165.926 104.743 165.882 104.284C165.866 104.134 165.866 103.982 165.882 103.832C165.926 103.522 165.995 103.216 166.09 102.917C166.34 102.074 166.589 101.229 166.837 100.383C166.992 99.9238 167.093 99.4481 167.137 98.9655C167.164 98.4402 166.831 97.7566 166.972 97.2668C167.037 97.0459 167.278 96.85 167.388 96.6645C167.545 96.3975 167.665 96.1108 167.746 95.812C167.917 95.2305 168.033 94.6094 168.391 94.1196C168.624 93.8292 168.898 93.5731 169.202 93.3589C169.427 93.1614 169.691 93.013 169.976 92.9233C170.253 92.8745 170.537 92.888 170.808 92.9629C171.161 93.0384 171.509 93.1373 171.849 93.2588H171.867C172.283 93.4089 172.725 93.6403 172.856 94.0613C172.919 94.2949 172.917 94.5416 172.849 94.7741Z" fill="#3F3D56"/>
<path d="M194.985 69.1507C194.973 69.4738 194.933 69.8343 194.684 70.0365C194.466 70.1758 194.208 70.2369 193.951 70.2095H193.895C193.152 70.2095 192.397 70.1678 191.694 70.3992C191.159 70.5763 190.668 70.9015 190.111 70.9661C189.343 71.0536 188.621 70.6326 187.941 70.2658C187.3 69.9201 186.643 69.6071 185.971 69.3279C185.53 69.1466 184.629 69.0298 184.417 68.5463C184.344 68.3175 184.283 68.0852 184.234 67.8502C184.199 67.7451 184.156 67.6427 184.107 67.5438C183.982 67.3326 183.902 67.0976 183.874 66.8539C183.874 66.611 183.958 66.3757 184.111 66.187C184.281 65.9857 184.488 65.82 184.722 65.6995C184.956 65.5789 185.211 65.5059 185.474 65.4846C185.998 65.4438 186.525 65.4718 187.042 65.5679L192.164 66.3058C192.559 66.362 192.957 66.4183 193.346 66.5142C193.715 66.5784 194.064 66.7314 194.361 66.9602C194.966 67.4688 195.016 68.3629 194.985 69.1507Z" fill="#3F3D56"/>
<path d="M190.483 70.4844C189.859 71.8037 190.308 73.3648 190.196 74.8238C190.102 75.6437 189.916 76.4504 189.643 77.229C189.401 78.0043 189.16 78.7817 188.852 79.5341C188.594 80.1594 188.288 80.7847 188.049 81.4225C187.668 82.4396 187.425 83.5838 186.653 84.3404C186.299 86.0453 185.85 87.9086 184.45 88.9423C183.233 89.8427 181.537 89.874 180.116 89.33C178.696 88.786 177.541 87.7439 176.524 86.6205C175.506 85.4971 174.597 84.2737 173.505 83.2274C172.879 82.6388 172.214 82.0936 171.514 81.5954C170.809 81.0827 170.085 80.6006 169.34 80.149C168.884 79.8364 168.373 79.6136 167.834 79.4925C167.391 79.4074 166.932 79.497 166.554 79.7426C166.468 79.8013 166.391 79.8715 166.323 79.951C166.138 80.2106 165.997 80.4995 165.907 80.8055C165.033 83.0857 162.689 84.257 160.816 85.8118L159.106 87.2312C158.873 87.425 158.615 87.7085 158.73 87.9898C158.808 88.1322 158.935 88.2416 159.088 88.2983C160.082 88.7902 161.249 88.9882 162.069 89.7385C162.368 90.0136 162.655 90.3763 163.061 90.3971C163.275 90.3845 163.486 90.3374 163.685 90.2575C163.998 90.1726 164.327 90.1616 164.645 90.2253C164.963 90.2889 165.262 90.4255 165.518 90.6243C165.664 90.7666 165.833 90.883 166.017 90.9682C166.172 91.0092 166.333 91.0191 166.492 90.9974C166.935 90.9661 167.405 90.9265 167.802 91.1245C168.2 91.3225 168.526 91.7894 168.99 91.8227C169.217 91.8394 169.488 91.7644 169.704 91.7852C169.763 91.7871 169.822 91.8032 169.874 91.8322C169.926 91.8612 169.97 91.9023 170.003 91.952C170.052 92.0665 170.085 92.1871 170.101 92.3105C170.187 92.6043 170.474 92.7836 170.661 93.0253C170.948 93.3963 170.99 93.9007 170.96 94.3697C170.866 95.836 170.214 97.2102 169.138 98.2088C168.833 98.5216 168.443 98.7388 168.017 98.8341C167.803 98.8788 167.581 98.8552 167.382 98.7666C167.182 98.6779 167.016 98.5287 166.906 98.3401C166.859 98.1778 166.789 98.0233 166.698 97.8816C166.363 97.5127 165.612 97.9045 165.304 97.5106C165.112 97.2647 165.25 96.8707 165.067 96.6165C164.884 96.3622 164.443 96.408 164.103 96.3934C163.706 96.3726 163.338 96.185 162.953 96.0871C162.329 95.9245 161.676 95.9849 161.037 95.9412C160.506 95.8943 159.979 95.8107 159.46 95.6911L156.814 95.1492C155.129 94.8053 153.437 94.4572 151.833 93.8424C151.219 93.6089 150.602 93.3213 150.169 92.8211C149.82 92.3815 149.596 91.856 149.52 91.2996C149.143 89.0757 151.14 87.1749 151.392 84.9344C151.482 84.1174 151.808 83.3462 152.116 82.5875C152.681 81.2314 153.244 79.8746 153.805 78.517C153.896 78.2643 154.015 78.0224 154.159 77.7959C154.398 77.5057 154.668 77.2423 154.964 77.0101C155.753 76.2934 156.318 75.3643 156.593 74.334C156.614 74.2194 156.661 74.1114 156.733 74.0193C156.806 73.9574 156.887 73.9049 156.974 73.863C157.122 73.766 157.234 73.6219 157.291 73.4537C157.348 73.2855 157.347 73.103 157.288 72.9355C157.417 72.9248 157.538 72.868 157.629 72.7754C157.72 72.6828 157.775 72.5606 157.783 72.4311C157.768 72.3183 157.775 72.2036 157.804 72.0934C157.854 71.9851 157.979 71.9309 158.051 71.835C158.17 71.6787 158.128 71.4598 158.11 71.2639C158.097 71.1399 158.097 71.0149 158.11 70.8908C158.155 70.4495 158.352 70.0377 158.667 69.7258C159.165 69.236 159.872 69.3631 160.558 69.2464C161.243 69.0983 161.912 68.884 162.556 68.6065C164.361 67.8939 166.261 67.4536 168.196 67.2997C170.139 67.1466 172.092 67.458 173.892 68.2084C174.154 68.3147 174.401 68.4548 174.626 68.6253C174.786 68.749 174.918 68.9062 175.011 69.0859C175.088 69.3065 175.182 69.5205 175.294 69.7258C175.517 70.0301 175.937 70.128 176.18 70.4156C176.424 70.7033 176.444 71.1889 176.646 71.5453C176.935 72.0538 177.605 72.2894 177.805 72.8417C177.867 73.0168 177.876 73.2085 177.922 73.3898C178.034 73.8442 178.371 74.2027 178.668 74.5612C179.759 75.868 180.457 77.458 180.682 79.1465C180.749 78.0898 181.458 77.1539 182.347 76.5704C182.586 76.414 182.863 76.2411 182.91 75.9576C182.971 75.5991 182.623 75.2802 182.646 74.9155C182.671 74.7374 182.743 74.5692 182.854 74.4278C183.251 73.8521 183.686 73.304 184.157 72.7875C184.412 72.5061 184.7 72.1622 184.593 71.7912C184.512 71.514 184.229 71.3515 184.073 71.1097C183.982 70.9656 183.936 70.7977 183.939 70.6272C183.943 70.4566 183.997 70.291 184.094 70.1509C184.24 69.9529 184.471 69.8091 184.541 69.5736C184.623 69.2964 184.442 68.9963 184.498 68.7107C184.574 68.4821 184.725 68.2859 184.926 68.1543C185.202 67.9025 185.516 67.6957 185.856 67.5415C186.406 67.3331 187.017 67.4102 187.6 67.4915C188.573 67.6269 189.666 67.8354 190.215 68.6524C190.566 69.163 190.745 69.9384 190.483 70.4844Z" fill="#65617D"/>
<path opacity="0.1" d="M194.985 69.1507C194.973 69.4738 194.933 69.8343 194.684 70.0365C194.466 70.1758 194.208 70.2369 193.951 70.2095H193.895C193.981 69.776 194.507 69.528 194.598 69.0882C194.614 68.9531 194.602 68.8162 194.562 68.6861C194.523 68.5559 194.457 68.4353 194.37 68.3316C193.924 67.7293 193.209 67.3958 192.497 67.1519C190.487 66.4615 188.334 66.3001 186.243 66.683C185.675 66.7757 185.122 66.9461 184.6 67.1895C184.427 67.2979 184.26 67.4162 184.101 67.5438C183.976 67.3326 183.896 67.0976 183.868 66.8539C183.868 66.611 183.952 66.3757 184.105 66.187C184.275 65.9857 184.482 65.82 184.716 65.6995C184.95 65.5789 185.205 65.5059 185.467 65.4846C185.992 65.4438 186.519 65.4718 187.036 65.5679L192.158 66.3058C192.553 66.362 192.951 66.4183 193.34 66.5142C193.709 66.5784 194.058 66.7314 194.355 66.9602C194.967 67.4688 195.017 68.3629 194.985 69.1507Z" fill="black"/>
<path opacity="0.1" d="M172.849 94.7736C172.535 95.9783 171.591 96.9162 171.106 98.0646C170.376 99.7841 170.704 101.887 169.673 103.442C169.338 103.914 168.933 104.332 168.472 104.682C168.217 104.9 167.938 105.088 167.64 105.243C167.332 105.413 166.969 105.458 166.629 105.368C166.19 105.218 165.926 104.742 165.882 104.284C165.866 104.134 165.866 103.982 165.882 103.832L165.894 103.865C166.075 104.303 166.371 104.761 166.837 104.838C167.012 104.851 167.187 104.827 167.353 104.769C167.518 104.71 167.67 104.618 167.798 104.499C168.485 103.946 168.884 103.123 169.265 102.329C169.563 101.756 169.799 101.153 169.968 100.53C170.051 100.176 170.091 99.8133 170.176 99.4589C170.571 97.7374 171.917 96.3326 172.215 94.5881C172.239 94.4681 172.245 94.3451 172.232 94.2234C172.192 94.0646 172.132 93.9118 172.053 93.769C171.98 93.6077 171.927 93.4384 171.894 93.2646C172.311 93.4147 172.752 93.646 172.883 94.0671C172.936 94.3012 172.925 94.5456 172.849 94.7736Z" fill="black"/>
<path opacity="0.1" d="M169.708 91.785C169.516 92.2893 169.192 92.7327 168.77 93.0689C168.178 93.521 167.484 93.8215 166.75 93.9443C166.408 94.0317 166.049 94.0274 165.71 93.9318C165.248 93.7713 164.915 93.3378 164.443 93.2127C164.106 93.121 163.744 93.2023 163.402 93.1523C162.789 93.0668 162.312 92.5979 161.817 92.2227C160.3 91.0806 158.309 90.7117 156.793 89.5695C156.725 89.528 156.669 89.4699 156.631 89.4007C156.602 89.3258 156.591 89.245 156.599 89.1652C156.605 88.4724 156.76 87.789 157.055 87.1622C157.296 86.7249 157.584 86.3147 157.912 85.9388C159.271 84.2714 160.635 82.5915 162.262 81.1846C162.945 80.5948 163.689 80.0446 164.551 79.7778C165.029 79.6298 165.974 79.4902 166.556 79.7403C166.47 79.7991 166.393 79.8692 166.325 79.9487C166.14 80.2084 166 80.4972 165.909 80.8032C165.033 83.0855 162.689 84.2568 160.816 85.8116L159.106 87.231C158.873 87.4248 158.615 87.7083 158.73 87.9897C158.808 88.132 158.935 88.2414 159.088 88.2981C160.082 88.79 161.249 88.988 162.069 89.7383C162.368 90.0134 162.655 90.3761 163.061 90.3969C163.275 90.3844 163.486 90.3372 163.685 90.2573C163.998 90.1725 164.327 90.1614 164.645 90.2251C164.963 90.2887 165.262 90.4253 165.518 90.6241C165.664 90.7665 165.833 90.8828 166.017 90.968C166.172 91.009 166.333 91.0189 166.492 90.9972C166.935 90.9659 167.405 90.9263 167.802 91.1243C168.2 91.3223 168.526 91.7892 168.99 91.8226C169.221 91.8392 169.492 91.76 169.708 91.785Z" fill="black"/>
<path d="M150.575 63.4977C150.179 63.752 149.759 64.0396 149.597 64.4815C149.464 64.8421 149.526 65.2547 149.366 65.6049C149.206 65.955 148.846 66.1989 148.767 66.574C148.711 66.8471 148.821 67.1347 148.767 67.4077C148.72 67.5497 148.681 67.6945 148.652 67.8413C148.632 68.1518 148.898 68.404 149.158 68.577C149.712 68.9378 150.342 69.1634 150.998 69.2358C151.655 69.3082 152.319 69.2253 152.938 68.9938C153.493 68.7854 153.995 68.4457 154.527 68.1789C155.047 67.8793 155.641 67.7346 156.24 67.7621C156.583 67.7996 156.912 67.9246 157.255 67.9705C157.424 68.004 157.6 67.9958 157.765 67.9464C157.931 67.897 158.082 67.808 158.206 67.687C158.312 67.5404 158.383 67.3714 158.414 67.1931C158.703 66.0488 158.572 64.8358 158.297 63.6853C158.023 62.5348 157.606 61.4281 157.313 60.2838C157.105 59.4356 156.945 58.5664 156.597 57.764C156.25 56.9616 155.665 56.2154 154.848 55.909C154.783 55.8773 154.71 55.8678 154.64 55.882C154.587 55.9039 154.541 55.9382 154.505 55.982C153.858 56.6686 153.37 57.4899 153.077 58.3872C152.751 59.3855 152.661 60.4443 152.362 61.4468C152.233 61.8637 152.066 62.4223 151.738 62.7411C151.409 63.06 150.947 63.258 150.575 63.4977Z" fill="#3F3D56"/>
<path opacity="0.1" d="M158.42 67.1874C158.385 67.3664 158.31 67.5352 158.201 67.6813C158.078 67.8027 157.927 67.8918 157.761 67.9409C157.595 67.99 157.42 67.9975 157.251 67.9627C156.909 67.921 156.581 67.7939 156.237 67.7543C155.639 67.7265 155.044 67.8712 154.525 68.1711C153.993 68.4379 153.485 68.7693 152.934 68.984C152.127 69.2904 151.246 69.3406 150.41 69.1278C149.966 69.016 149.544 68.83 149.162 68.5776C148.9 68.4067 148.636 68.1607 148.656 67.8418C148.685 67.6958 148.724 67.5517 148.771 67.4104C148.825 67.1374 148.717 66.8497 148.771 66.5767C148.85 66.2016 149.212 65.9514 149.37 65.6055C149.528 65.2595 149.468 64.8447 149.599 64.4841C149.761 64.0402 150.183 63.7547 150.579 63.4983C150.974 63.2419 151.444 63.046 151.76 62.7355C151.801 62.6871 151.838 62.6356 151.871 62.5813C152.099 62.2289 152.266 61.8407 152.366 61.4328C152.672 60.4282 152.755 59.3715 153.079 58.3711C153.374 57.4746 153.862 56.6541 154.509 55.968C154.543 55.9233 154.589 55.8887 154.642 55.868C154.712 55.8536 154.785 55.8624 154.85 55.893C155.665 56.2014 156.25 56.9476 156.599 57.75C156.949 58.5524 157.097 59.4174 157.315 60.2678C157.606 61.412 158.024 62.5229 158.299 63.6713C158.574 64.8197 158.709 66.0411 158.42 67.1874Z" fill="black"/>
<path opacity="0.1" d="M164.607 41.7682C163.629 42.0796 162.57 42.0177 161.635 41.5945C160.699 41.1713 159.953 40.4166 159.539 39.4755C159.555 39.2802 159.583 39.086 159.622 38.894C159.83 37.9353 160.721 38.2854 161.424 38.5397C162.27 38.8152 163.089 39.1704 163.869 39.6006C164.106 39.7232 164.312 39.8986 164.472 40.1133C164.78 40.5739 164.657 41.1867 164.607 41.7682Z" fill="black"/>
<path d="M163.35 41.7555C165.648 41.7555 167.511 39.8892 167.511 37.5871C167.511 35.2849 165.648 33.4186 163.35 33.4186C161.052 33.4186 159.189 35.2849 159.189 37.5871C159.189 39.8892 161.052 41.7555 163.35 41.7555Z" fill="#BE6F72"/>
<path opacity="0.1" d="M174.641 68.7375C174.641 69.0834 174.173 69.1939 173.825 69.1751C172.577 69.1022 171.356 68.7583 170.12 68.8625C168.558 69.0042 167.122 69.8692 165.556 69.9484C164.952 69.9796 164.339 69.89 163.744 70.0005C162.974 70.1443 162.287 70.6132 161.503 70.6799C160.823 70.7383 160.151 70.4819 159.47 70.509C158.995 70.5374 158.531 70.6698 158.112 70.8967C158.157 70.4554 158.354 70.0436 158.669 69.7316C159.167 69.2418 159.874 69.369 160.561 69.2523C161.245 69.1042 161.914 68.8899 162.558 68.6124C164.363 67.8998 166.264 67.4594 168.198 67.3056C170.14 67.1508 172.092 67.4601 173.892 68.2081C174.154 68.3143 174.401 68.4545 174.626 68.6249C174.638 68.6613 174.643 68.6994 174.641 68.7375Z" fill="black"/>
<path d="M161.426 45.1985L159.741 44.5733L159.029 44.3107C158.739 44.1889 158.434 44.1076 158.122 44.0689C157.307 44.0064 156.539 44.5503 156.104 45.2444C155.669 45.9384 155.505 46.7659 155.366 47.5725C155.174 48.6757 155.012 49.7831 154.879 50.8947C154.735 51.8985 154.662 52.9112 154.66 53.9252C154.708 56.5055 155.253 59.0503 155.852 61.5618C156.146 62.6753 156.368 63.8066 156.516 64.9487C156.566 65.4197 156.589 65.8928 156.639 66.3659C156.693 66.8974 156.78 67.4226 156.868 67.95L157.369 70.945C157.993 70.501 158.703 70.1113 159.47 70.0884C160.151 70.0634 160.825 70.3176 161.503 70.2593C162.283 70.1947 162.974 69.7257 163.743 69.5819C164.338 69.4714 164.952 69.559 165.558 69.5298C167.122 69.4506 168.56 68.5836 170.12 68.4439C171.358 68.3314 172.587 68.6815 173.827 68.7545C174.173 68.7753 174.641 68.6648 174.641 68.3168C174.641 68.075 174.399 67.9145 174.189 67.7936C173.199 67.1962 172.256 66.5223 171.37 65.7782C170.551 65.1279 169.718 64.461 169.155 63.5814C167.796 61.4659 168.262 58.6043 167.103 56.3721C166.161 54.5588 167.103 52.1828 167.103 50.1382C167.103 49.119 167.103 48.0873 166.864 47.0973C166.715 46.5436 166.528 46.0005 166.307 45.4716L165.497 43.4186C165.48 43.3586 165.447 43.3045 165.402 43.2623C165.347 43.2247 165.282 43.2051 165.216 43.206C164.73 43.1768 164.251 43.3307 163.872 43.6375C163.492 43.948 163.248 44.394 162.874 44.7171C162.464 45.0735 161.936 45.3861 161.426 45.1985Z" fill="#E3E8F4"/>
<path d="M164.145 44.015C164.278 43.4439 164.422 42.8499 164.802 42.4039C165.183 41.9579 165.878 41.7224 166.369 42.0412C166.926 42.4039 166.949 43.2418 167.426 43.7086C167.842 44.1088 168.466 44.1401 169.032 44.1922C170.049 44.2849 171.049 44.5207 172.001 44.8925C172.186 44.9501 172.355 45.0516 172.494 45.1884C172.754 45.4844 172.702 45.9387 172.831 46.3077C173.008 46.7829 173.496 47.0851 173.686 47.5582C173.894 48.0834 173.686 48.6712 173.511 49.211C173.197 50.1801 172.999 51.1868 172.693 52.1602C172.388 53.1335 171.953 54.0922 171.237 54.8259C170.921 55.151 170.451 55.4512 170.035 55.2573L169.874 56.4141C169.828 56.6585 169.828 56.9096 169.874 57.154C169.899 57.2763 169.957 57.3892 170.042 57.4799C170.127 57.5706 170.237 57.6354 170.357 57.6667C170.388 57.8459 170.578 57.9314 170.732 58.0294C170.845 58.1072 170.942 58.2069 171.017 58.3226C171.092 58.4383 171.143 58.5678 171.168 58.7035C171.192 58.8392 171.19 58.9785 171.16 59.1132C171.131 59.2479 171.075 59.3754 170.996 59.4883C170.865 59.6655 170.671 59.8051 170.609 60.0156C170.515 60.3199 170.738 60.6409 171.008 60.8076C171.279 60.9744 171.597 61.0515 171.872 61.212C172.442 61.5413 172.747 62.1895 172.943 62.8189C173.089 63.2941 173.209 63.8089 173.567 64.1549C173.704 64.2862 173.869 64.3862 174 64.5238C174.227 64.7923 174.358 65.129 174.372 65.4805C174.429 65.9161 174.334 66.3581 174.102 66.731C173.686 67.3271 172.91 67.5043 172.229 67.7731C171.125 68.2275 170.216 69.0403 169.242 69.7323C168.845 70.0522 168.378 70.2724 167.879 70.3742C167.205 70.4639 166.542 70.1658 165.863 70.1387C165.458 70.1425 165.054 70.1957 164.661 70.2971L163.413 70.5681C163.479 69.5989 162.947 68.6276 162.649 67.7043C162.087 65.9661 161.983 64.107 162.117 62.2853C162.25 60.4637 162.62 58.6671 162.986 56.8789C163.242 55.6283 163.217 54.3215 163.61 53.1064C163.978 51.9372 164.505 50.8138 164.698 49.5966C165.015 47.627 163.7 45.9575 164.145 44.015Z" fill="#3F3D56"/>
<path d="M173.609 47.8686C173.724 48.0804 173.804 48.309 173.848 48.5459C173.944 48.9131 174.125 49.2528 174.374 49.538C174.584 49.723 174.77 49.933 174.928 50.1633C175.119 50.526 175.046 50.9678 175.136 51.3638C175.24 51.7952 175.542 52.1704 175.585 52.6143C175.587 52.7416 175.598 52.8684 175.621 52.9937C175.756 53.4981 176.496 53.619 176.661 54.1233C176.771 54.4506 176.582 54.807 176.617 55.1509C176.643 55.2572 176.649 55.3674 176.636 55.476C176.589 55.5988 176.506 55.7048 176.399 55.7803C175.71 56.4393 175.234 57.289 175.03 58.2209C174.829 59.1477 174.724 60.0926 174.716 61.0409L173.902 59.9633C173.816 59.8326 173.706 59.7194 173.578 59.6299C173.474 59.5673 173.353 59.5361 173.247 59.4735C172.939 59.2985 172.818 58.9275 172.7 58.594C172.37 57.6709 171.877 56.8151 171.243 56.0679C170.913 55.6782 170.528 55.2863 170.455 54.7799C170.433 54.5472 170.446 54.3127 170.492 54.0837C170.7 52.7186 170.923 51.32 171.587 50.1091C171.897 49.5422 172.298 49.0295 172.596 48.4542C172.795 48.0728 173.076 47.0807 173.609 47.8686Z" fill="#3F3D56"/>
<path d="M153.086 49.1791C153.089 49.3546 153.045 49.5277 152.957 49.6793C152.877 49.7717 152.773 49.84 152.657 49.8768C152.541 49.9136 152.417 49.9174 152.299 49.8878C152.062 49.8282 151.839 49.7235 151.642 49.5793C151.062 49.2125 150.482 48.845 149.903 48.4767C149.579 48.2813 149.267 48.067 148.969 47.8348C148.512 47.4489 148.099 47.015 147.735 46.5405C146.724 45.29 145.829 43.9331 144.704 42.7889C144.398 42.4763 144.08 42.1761 143.784 41.8489C143.38 41.3759 143.009 40.8759 142.673 40.3524C142.349 39.871 142.012 39.3374 142.068 38.7622C142.101 38.437 142.257 38.1369 142.303 37.8138C142.349 37.4908 142.226 37.0969 141.914 37.0093C141.877 37 141.839 36.9938 141.801 36.9906C141.74 36.984 141.679 36.9707 141.62 36.951C141.331 36.8301 141.375 36.382 141.583 36.1465C141.791 35.9109 142.099 35.7796 142.288 35.5212C142.376 35.3678 142.475 35.2209 142.584 35.0814C142.723 34.9618 142.889 34.878 143.068 34.8376C144.268 34.4833 145.538 34.4353 146.761 34.6979C146.969 34.7438 147.206 34.8271 147.269 35.0293C147.294 35.1278 147.294 35.231 147.269 35.3294C147.177 35.7404 147.124 36.1591 147.111 36.58C147.11 36.6677 147.115 36.7554 147.125 36.8426C147.223 37.7263 147.795 38.4745 148.353 39.1644C149.014 39.9856 149.686 40.8005 150.36 41.6134C150.725 42.0844 151.132 42.5205 151.577 42.916C151.993 43.262 152.532 43.5413 152.857 43.9852C153.121 44.3437 153.036 44.8335 153.065 45.265C153.162 46.5676 153.169 47.8755 153.086 49.1791Z" fill="#3F3D56"/>
<path d="M179.507 57.8752C179.713 57.675 179.898 57.4551 180.06 57.2186C180.235 56.9256 180.375 56.6129 180.477 56.287L181.683 52.8584C181.875 52.3165 182.066 51.7725 182.307 51.2452C182.557 50.6762 182.852 50.1281 183.125 49.5778C183.826 48.1298 184.368 46.6098 184.741 45.0446C184.807 44.8296 184.829 44.6035 184.806 44.3798C184.748 44.0192 184.475 43.7378 184.215 43.4815C183.954 43.1985 183.656 42.9518 183.329 42.7478C183.165 42.6456 182.982 42.5771 182.791 42.5464C182.601 42.5156 182.406 42.5231 182.218 42.5686C181.685 42.7249 181.35 43.271 181.228 43.8191C181.105 44.3673 181.151 44.9279 181.099 45.4865C181.024 46.2868 180.749 47.0601 180.683 47.8625C180.647 48.3273 180.683 48.7962 180.626 49.2589C180.524 49.8666 180.312 50.4505 180.002 50.9826C179.326 52.25 178.413 53.3752 177.312 54.2965C177.011 54.5195 176.739 54.7809 176.505 55.0739C176.309 55.3671 176.177 55.6979 176.116 56.0452C175.978 56.5741 176.038 57.1354 176.285 57.623C176.624 58.2024 177.275 58.4566 177.897 58.5859C178.737 58.7609 178.931 58.4733 179.507 57.8752Z" fill="#BE6F72"/>
<path d="M163.375 31.5465C163.555 31.2094 163.829 30.9325 164.164 30.7505C164.499 30.5685 164.881 30.4894 165.26 30.5232C165.643 30.591 165.999 30.7648 166.288 31.0249C166.577 31.285 166.787 31.6209 166.896 31.9946C166.993 32.3052 167.033 32.6491 167.203 32.9159C167.461 33.3181 167.94 33.4348 168.298 33.7266C168.511 33.9255 168.683 34.1651 168.803 34.4313C168.923 34.6976 168.989 34.9852 168.997 35.2773C169.017 35.8739 168.923 36.4688 168.72 37.0301C168.634 37.2696 168.565 37.5148 168.512 37.7638C168.47 38.0056 168.466 38.2515 168.429 38.4933C168.383 38.8068 168.274 39.1078 168.11 39.3788C167.946 39.6498 167.73 39.8851 167.474 40.071C167.401 40.1306 167.31 40.1637 167.216 40.1648C167.054 40.1461 166.954 39.9564 166.893 39.7855C166.563 38.8288 166.642 37.6596 166.032 36.8967C165.755 36.589 165.42 36.339 165.046 36.161C164.894 36.0625 164.722 35.9979 164.543 35.9713C164.279 35.9856 164.025 36.0785 163.814 36.2381C163.375 36.5332 162.888 36.749 162.375 36.8759C162.119 36.9367 161.852 36.9394 161.595 36.8839C161.337 36.8284 161.096 36.716 160.887 36.5549C160.6 36.3173 160.39 35.9609 160.072 35.7754C159.753 35.5899 159.421 35.6004 159.106 35.4732C158.906 35.3879 158.728 35.2579 158.586 35.0932C158.443 34.9285 158.34 34.7334 158.284 34.5227C158.229 34.312 158.222 34.0914 158.264 33.8776C158.306 33.6638 158.396 33.4624 158.528 33.2889C158.736 33.0388 159.044 32.8971 159.229 32.6199C159.468 32.2614 159.448 31.7695 159.562 31.3402C159.63 31.0686 159.761 30.817 159.945 30.6064C160.129 30.3958 160.361 30.2322 160.621 30.1293C160.873 30.0435 161.143 30.0271 161.404 30.0817C161.665 30.1363 161.906 30.26 162.102 30.4398C162.31 30.6274 162.477 30.8692 162.681 31.0651C162.882 31.2581 163.128 31.3974 163.397 31.4702C163.666 31.5431 163.949 31.5471 164.22 31.4819" fill="#3F3D56"/>
<path opacity="0.1" d="M166.796 62.225C166.674 62.333 166.589 62.4751 166.549 62.6327C166.51 62.7904 166.519 62.9562 166.575 63.1087C166.621 63.2066 168.768 62.7919 168.995 62.7606C169.56 62.6793 170.553 62.7189 170.933 62.1999C171.612 61.2808 169.51 61.4851 169.126 61.5184C168.393 61.5809 167.353 61.681 166.796 62.225Z" fill="black"/>
<path d="M147.265 35.3378C147.173 35.7487 147.12 36.1674 147.107 36.5883C146.483 36.7155 145.833 36.507 145.234 36.2986L143.514 35.7108C143.409 35.6438 143.283 35.6193 143.161 35.6421C143.039 35.665 142.93 35.7335 142.856 35.8338C142.58 36.1214 142.199 36.6675 141.816 36.9906C141.755 36.984 141.694 36.9707 141.635 36.951C141.346 36.8301 141.39 36.382 141.598 36.1465C141.806 35.9109 142.114 35.7796 142.303 35.5212C142.391 35.3678 142.49 35.2209 142.598 35.0814C142.738 34.9618 142.904 34.878 143.083 34.8376C144.283 34.4833 145.553 34.4353 146.776 34.6979C146.984 34.7438 147.221 34.8271 147.284 35.0293C147.304 35.132 147.297 35.2383 147.265 35.3378Z" fill="#3F3D56"/>
<path opacity="0.1" d="M147.265 35.3378C147.173 35.7487 147.12 36.1674 147.107 36.5883C146.483 36.7155 145.833 36.507 145.234 36.2986L143.514 35.7108C143.409 35.6438 143.283 35.6193 143.161 35.6421C143.039 35.665 142.93 35.7335 142.856 35.8338C142.58 36.1214 142.199 36.6675 141.816 36.9906C141.755 36.984 141.694 36.9707 141.635 36.951C141.346 36.8301 141.39 36.382 141.598 36.1465C141.806 35.9109 142.114 35.7796 142.303 35.5212C142.391 35.3678 142.49 35.2209 142.598 35.0814C142.738 34.9618 142.904 34.878 143.083 34.8376C144.283 34.4833 145.553 34.4353 146.776 34.6979C146.984 34.7438 147.221 34.8271 147.284 35.0293C147.304 35.132 147.297 35.2383 147.265 35.3378Z" fill="black"/>
<path opacity="0.1" d="M163.003 74.9073C163.303 75.0073 163.627 75.1532 163.729 75.4534L161.32 74.8406L160.072 74.5217C159.851 74.4654 159.061 74.4008 158.915 74.2278C158.707 73.9736 159.445 74.1486 159.579 74.1674C159.982 74.2278 160.386 74.2904 160.787 74.3633C161.545 74.4988 162.273 74.7218 163.003 74.9073Z" fill="black"/>
<path opacity="0.1" d="M163.937 77.0434C163.729 76.9037 163.132 76.9204 162.876 76.86C162.502 76.7703 162.133 76.6515 161.765 76.5369C161.018 76.2931 160.278 76.0159 159.51 75.8366C159.369 75.8054 158.886 75.797 158.909 75.6178C158.932 75.4385 159.391 75.376 159.506 75.3677C160.186 75.3176 161.035 75.6365 161.667 75.8637C162.473 76.153 163.237 76.5498 163.937 77.0434Z" fill="black"/>
<path opacity="0.1" d="M162.41 73.0024C161.646 72.794 160.954 72.3188 160.167 72.2271C159.962 72.2349 159.761 72.1732 159.595 72.052C159.503 71.961 159.438 71.8452 159.41 71.7186C159.936 71.6915 160.548 71.9145 161.026 72.125C161.29 72.2382 161.543 72.3734 161.784 72.5293C161.958 72.6356 162.221 72.942 162.41 73.0024Z" fill="black"/>
<path d="M176.965 54.3402C176.836 55.2067 177.023 56.0908 177.491 56.8307C177.959 57.5705 178.678 58.1166 179.515 58.369C179.413 58.863 178.904 59.136 178.544 59.4882C178.036 59.9822 177.774 60.7221 177.175 61.0973C176.507 61.5141 175.648 61.3515 174.886 61.1765C174.817 61.1687 174.753 61.1352 174.708 61.0827C174.692 61.0577 174.681 61.0302 174.674 61.0014C174.423 60.0781 174.258 59.0922 174.516 58.1668C174.724 57.379 175.224 56.7079 175.623 56.0118C176.022 55.3156 176.06 54.5695 176.965 54.3402Z" fill="#3F3D56"/>
<path d="M158.364 42.3894C157.558 42.4481 156.777 42.6867 156.075 43.0876C155.609 43.3544 155.131 43.7129 154.598 43.6483C154.284 43.6128 153.974 43.4398 153.668 43.5232C153.496 43.5928 153.335 43.6884 153.192 43.8067C153.119 43.8647 153.033 43.9029 152.941 43.9175C152.849 43.9321 152.755 43.9227 152.668 43.89L152.46 46.7746C152.38 47.8709 152.304 48.9901 152.566 50.0593C152.701 50.6054 152.998 51.1015 153.032 51.6559C153.065 52.2103 153.015 52.7793 153.055 53.3399C153.092 53.8589 153.206 54.3695 153.236 54.8885C153.294 55.8681 153.052 56.8393 152.819 57.7918C152.468 59.1966 152.256 60.6326 151.571 61.904C151.38 62.2562 151.155 62.6147 151.155 63.0149C151.155 63.0649 151.155 63.1129 151.168 63.1608C150.96 63.2754 150.766 63.3838 150.589 63.4964C150.194 63.7527 149.772 64.0383 149.609 64.4822C149.478 64.8428 149.539 65.2554 149.381 65.6035C149.222 65.9516 148.86 66.1996 148.781 66.5748C148.725 66.8478 148.833 67.1354 148.781 67.4085C148.734 67.5497 148.696 67.6938 148.667 67.8399C148.646 68.1525 148.91 68.4047 149.172 68.5756C149.555 68.828 149.977 69.0141 150.421 69.1259L151.663 64.1862C152.795 62.0887 153.737 59.8935 154.478 57.6272C154.689 56.8864 154.961 56.1642 155.291 55.4679C155.526 55.074 155.735 54.6646 155.915 54.2424C156.104 53.7172 156.123 53.1482 156.215 52.5938C156.323 51.9467 156.487 51.3101 156.704 50.6909C156.928 50.0218 157.188 49.3549 157.234 48.6525C157.303 47.6479 156.939 46.587 157.326 45.6574C157.49 45.3095 157.704 44.9873 157.96 44.7008C158.497 44.0422 158.986 43.3523 159.523 42.6937C159.244 42.3956 158.78 42.3644 158.364 42.3894Z" fill="#3F3D56"/>
<g opacity="0.1">
<path opacity="0.1" d="M164.226 30.8609L163.966 30.8797L163.937 30.9005C164.034 30.8965 164.131 30.8833 164.226 30.8609Z" fill="black"/>
<path opacity="0.1" d="M168.986 35.1877C168.943 35.6021 168.854 36.0103 168.72 36.4049C168.634 36.6444 168.564 36.8895 168.512 37.1386C168.47 37.3803 168.466 37.6263 168.429 37.868C168.383 38.1815 168.274 38.4826 168.11 38.7536C167.946 39.0245 167.73 39.2599 167.474 39.4458C167.401 39.5054 167.31 39.5385 167.216 39.5396C167.054 39.5208 166.954 39.3312 166.893 39.1603C166.563 38.2036 166.642 37.0343 166.032 36.2715C165.755 35.9638 165.42 35.7138 165.046 35.5358C164.894 35.4373 164.722 35.3726 164.542 35.3461C164.279 35.3603 164.025 35.4532 163.814 35.6129C163.375 35.908 162.888 36.1238 162.375 36.2507C162.119 36.3115 161.852 36.3142 161.595 36.2587C161.337 36.2032 161.096 36.0908 160.887 35.9297C160.6 35.6921 160.39 35.3357 160.072 35.1502C159.753 34.9647 159.421 34.9751 159.106 34.848C158.91 34.764 158.735 34.6369 158.595 34.4759C158.454 34.315 158.352 34.1245 158.295 33.9184C158.288 33.8924 158.282 33.866 158.278 33.8392C158.226 34.0719 158.232 34.3138 158.295 34.5437C158.352 34.7497 158.454 34.9403 158.595 35.1012C158.735 35.2621 158.91 35.3893 159.106 35.4733C159.421 35.6004 159.774 35.6025 160.072 35.7755C160.369 35.9485 160.6 36.3174 160.887 36.555C161.096 36.716 161.337 36.8284 161.595 36.8839C161.852 36.9395 162.119 36.9367 162.375 36.876C162.888 36.7491 163.375 36.5332 163.814 36.2382C164.025 36.0785 164.279 35.9856 164.542 35.9714C164.722 35.9979 164.894 36.0626 165.046 36.1611C165.415 36.3425 165.745 36.5946 166.018 36.903C166.627 37.6659 166.548 38.8351 166.879 39.7918C166.939 39.9648 167.039 40.1524 167.201 40.1711C167.301 40.1716 167.398 40.1361 167.474 40.0711C167.731 39.8846 167.948 39.6484 168.113 39.3763C168.277 39.1042 168.385 38.8018 168.431 38.4871C168.468 38.2453 168.472 37.9993 168.514 37.7576C168.567 37.5086 168.636 37.2634 168.722 37.0239C168.925 36.4626 169.019 35.8677 168.999 35.2711C168.995 35.2461 168.99 35.2169 168.986 35.1877Z" fill="black"/>
</g>
<path d="M155.823 51.9116L155.682 53.8145C155.661 54.0729 155.168 60.2256 151.532 67.4161C148.411 73.5834 142.338 81.616 130.873 86.1304C129.978 86.4847 129.05 86.8154 128.087 87.1225L127.014 83.746C129.709 82.8964 132.305 81.7588 134.757 80.3529C140.601 76.9723 145.145 72.1473 148.313 65.9384C149.994 62.6327 151.192 59.102 151.871 55.4548H138.826V51.9116H155.823Z" fill="#F9A826"/>
<path opacity="0.1" d="M129.468 86.1329C140.932 81.6184 147.006 73.5879 150.125 67.4207C153.762 60.2301 154.257 54.0816 154.275 53.819L154.417 51.9161H155.873L155.732 53.819C155.713 54.0775 155.218 60.2301 151.581 67.4207C148.461 73.5879 142.388 81.6184 130.925 86.1329C130.03 86.4872 129.101 86.8186 128.137 87.127L127.996 86.6831C128.498 86.5039 128.989 86.3204 129.468 86.1329Z" fill="white"/>
<path d="M106.518 83.746L105.444 87.1225C104.48 86.814 103.551 86.4826 102.656 86.1283C91.1931 81.6139 85.1183 73.5834 81.9997 67.4161C78.3632 60.2256 77.868 54.0771 77.8493 53.8145L77.7078 51.9116H94.6965V55.4548H81.6502C82.3322 59.1025 83.5338 62.6331 85.2181 65.9384C88.3866 72.1473 92.9282 76.9723 98.7721 80.3508C101.225 81.7582 103.821 82.8965 106.518 83.746Z" fill="#F9A826"/>
<path opacity="0.1" d="M104.059 86.1329C92.5955 81.6184 86.5207 73.5879 83.4021 67.4207C79.7656 60.2301 79.2704 54.0816 79.2517 53.819L79.1102 51.9161H77.6539L77.7954 53.819C77.8141 54.0775 78.3093 60.2301 81.9458 67.4207C85.0665 73.5879 91.1392 81.6184 102.602 86.1329C103.497 86.4872 104.426 86.8186 105.39 87.127L105.532 86.6831C105.031 86.5039 104.54 86.3204 104.059 86.1329Z" fill="white"/>
<path d="M136.39 116.385V135.491H97.139V116.385L98.3872 114.718C111.107 110.195 113.685 98.4004 114.198 93.7338C114.275 93.089 114.319 92.4407 114.329 91.7914H119.183C119.194 92.4407 119.238 93.089 119.314 93.7338C119.836 98.4004 122.414 110.199 135.125 114.718L136.39 116.385Z" fill="#F9A826"/>
<path opacity="0.1" d="M136.39 116.385H97.139V118.782H136.39V116.385Z" fill="black"/>
<path opacity="0.1" d="M100.468 114.718C113.187 110.195 115.765 98.4004 116.279 93.7338C116.355 93.089 116.399 92.4407 116.41 91.7914H114.329C114.319 92.4407 114.275 93.089 114.198 93.7338C113.676 98.4004 111.099 110.199 98.3872 114.718L97.139 116.385V135.491H99.2194V116.385L100.468 114.718Z" fill="white"/>
<path opacity="0.1" d="M91.1766 51.9116H94.6967V55.4548H91.4887C91.3625 54.2876 91.2585 53.1065 91.1766 51.9116Z" fill="black"/>
<path opacity="0.1" d="M106.517 83.7467L105.444 87.1232C104.48 86.8147 103.551 86.4833 102.656 86.129C101.185 84.3286 99.8842 82.3944 98.772 80.3515C101.225 81.7589 103.821 82.8972 106.517 83.7467Z" fill="black"/>
<path opacity="0.1" d="M127.012 83.7461C129.707 82.8964 132.303 81.7588 134.755 80.353C133.642 82.3961 132.342 84.331 130.871 86.1326C129.976 86.4869 129.048 86.8176 128.085 87.1246L127.012 83.7461Z" fill="black"/>
<path opacity="0.1" d="M142.351 51.9116C142.269 53.1065 142.165 54.2876 142.038 55.4548H138.833V51.9116H142.351Z" fill="black"/>
<path opacity="0.1" d="M119.323 93.7338C117.633 94.0618 115.896 94.0618 114.207 93.7338C114.283 93.089 114.327 92.4407 114.338 91.7914H119.191C119.202 92.4407 119.246 93.089 119.323 93.7338Z" fill="black"/>
<path d="M91.5928 46.0425C91.6822 72.3163 102.916 93.5629 116.766 93.5629C130.615 93.5629 141.847 72.3163 141.939 46.0425H91.5928Z" fill="#F9A826"/>
<path opacity="0.1" d="M96.0657 46.0425H91.5928C91.6822 72.3163 102.916 93.5629 116.766 93.5629C117.515 93.5616 118.263 93.4981 119.002 93.3732C106.199 91.2307 96.151 70.8865 96.0657 46.0425Z" fill="white"/>
<path d="M130.114 123.699H103.416V130.577H130.114V123.699Z" fill="#3F3D56"/>
<path opacity="0.1" d="M104.664 124.637H130.114V123.699H103.416V130.577H104.664V124.637Z" fill="white"/>
<path d="M77.3542 71.4095C76.8736 71.249 74.0443 69.0063 73.83 67.9913C73.6157 66.9763 75.3258 57.5202 75.3258 57.5202C75.3258 57.5202 75.1677 57.5202 74.9097 57.4889V57.3368L75.2613 44.9148C75.2613 44.9148 76.703 36.5779 73.9798 37.0635C71.2565 37.5491 72.9645 44.9148 72.9645 44.9148C72.9645 44.9148 72.6545 48.6539 72.4361 49.7752C72.2281 50.8569 71.2752 55.2629 71.9243 56.6323C71.9481 56.6809 71.9745 56.7282 72.0034 56.774C72.0034 56.774 72.1115 61.4739 70.9361 62.1159C69.8148 62.7266 69.3487 65.8008 69.3092 66.0759L69.2489 66.0509C68.9141 65.841 68.6201 65.572 68.3814 65.2568C68.3564 65.2255 68.3377 65.1922 68.3148 65.1589C69.0802 64.2962 69.4927 63.176 69.47 62.022C69.4472 60.868 68.9909 59.765 68.192 58.9333C67.8206 58.5468 67.3848 58.228 66.9043 57.9912C66.8903 57.593 66.7962 57.2016 66.6276 56.8407C66.0867 55.6819 63.0908 54.1666 60.9626 54.1312C59.9806 54.102 59.1755 54.3813 58.8822 55.1504C58.7324 55.5402 58.7781 55.9841 58.7157 56.3884C58.5909 57.2221 58.0562 57.8745 57.3697 58.3935C57.0925 58.0834 56.7928 57.7943 56.473 57.5285C55.7782 56.9949 54.3926 55.2359 54.3926 55.2359C54.3926 55.2359 50.0674 50.7485 49.747 49.5188C49.4266 48.2891 45.1056 40.9047 44.1445 42.1907C43.1833 43.4766 47.4544 49.0811 47.4544 49.0811C47.4544 49.0811 48.2658 51.1174 48.8899 51.8052C49.514 52.493 54.299 59.4543 54.299 59.4543L54.5278 59.9295C53.5168 60.4631 52.593 61.1425 52.2664 62.2013C51.7879 63.7603 52.8344 65.3277 53.5584 66.7866C54.9689 69.6337 55.1707 73.2644 53.3503 75.8655C51.7193 78.1623 48.8899 79.2545 46.2415 80.2091C47.5205 81.2153 49.1095 81.7437 50.7352 81.7034C50.1236 83.4792 47.9558 84.067 46.1084 84.3963C47.0778 85.33 48.4655 85.6697 49.797 85.8761C50.4491 85.9873 51.1098 86.0396 51.7713 86.0324H51.9335L52.0958 86.0199C52.3213 86.0049 52.5457 85.9763 52.7678 85.9344C53.729 85.7385 54.6631 85.2133 55.154 84.3629C55.5701 83.6355 55.7158 82.6434 56.4709 82.2787C56.6676 82.1897 56.8795 82.1395 57.0951 82.1307H57.0722C57.2137 82.1307 57.3593 82.1307 57.5008 82.1307L60.6484 82.162C60.7795 82.162 60.9147 82.162 61.05 82.162C61.9383 82.1411 62.887 81.9869 63.3384 81.2512C63.5241 80.8939 63.6219 80.4973 63.6234 80.0944C63.69 79.0961 63.6234 78.0686 63.6505 77.0619C63.9189 78.8939 64.1997 81.7493 63.5319 82.8039C62.9893 83.6031 62.3317 84.3173 61.5805 84.9236C61.3915 85.0826 61.2187 85.2599 61.0645 85.453C60.9626 85.5259 60.9022 85.5655 60.9022 85.5655L60.8377 85.7594C60.6006 86.1196 60.4288 86.519 60.3301 86.939C60.2938 87.0469 60.2804 87.1612 60.2906 87.2746C60.3634 87.4226 59.7705 88.0332 59.9432 88.2896C58.4619 90.0299 58.1811 92.6665 58.1811 92.6665L55.4765 96.7808C54.0868 100.439 52.0064 100.814 52.0064 100.814C52.0064 100.814 47.1195 97.529 46.9863 97.3685C46.8532 97.208 44.9849 96.4056 44.9849 96.4056C44.7647 96.0186 44.4284 95.7109 44.0238 95.526C43.383 95.2593 43.3289 94.2755 43.3289 94.2755C43.2499 91.9516 41.8872 91.7744 41.8872 91.7744C40.7887 91.6806 39.9503 91.8766 39.3054 92.2351L39.1098 92.2496C38.1653 92.3268 37.0294 92.4122 35.7812 92.4956C32.3089 92.7248 31.483 94.9779 31.483 94.9779C31.483 94.9779 31.0565 95.4593 31.6162 95.9804C32.1758 96.5015 35.7583 95.9804 35.9102 95.9679C35.6371 95.9975 35.361 95.9785 35.0946 95.9116C35.6584 95.8908 36.4344 95.8699 37.096 95.8699H37.2562C37.2145 96.2213 37.1944 96.5749 37.1958 96.9287C37.1958 97.5957 39.037 98.0229 39.037 98.0229L44.6438 103.025C44.6438 103.025 48.168 104.603 50.4107 106.873C52.6534 109.142 54.636 107.183 54.636 107.183C57.0098 106.595 63.8398 98.3231 63.846 98.3147C63.846 98.5565 63.9896 106.602 64.2621 108.217C64.273 108.299 64.2932 108.379 64.3225 108.457C64.6428 109.151 64.2143 111.047 64.0291 111.848C63.911 112.517 63.8657 113.198 63.8939 113.878C63.8939 113.878 61.3329 123.674 61.5451 124.534C61.7573 125.395 60.1575 129.395 60.1575 129.395V132.729L60.4362 132.715C60.4 132.769 60.3666 132.824 60.3364 132.882L60.3176 132.917C60.3176 132.917 62.0257 133.29 63.1741 133.184C64.3225 133.078 66.2947 134.07 66.2947 134.07C66.2947 134.07 66.9625 134.386 69.018 134.52C71.0734 134.653 71.0734 133.611 71.0734 133.611C70.8383 132.192 67.5908 131.717 67.4909 131.702C67.2288 131.537 66.9833 131.358 66.7815 131.204L66.7399 131.17C66.7535 131.139 66.7653 131.107 66.7753 131.075C67.1227 129.657 65.2004 129.042 65.2004 129.042V128.697C66.4486 128.055 66.6962 123.649 66.6962 123.649C66.6962 123.649 68.5686 118.2 68.8307 117.292C69.0929 116.383 68.8307 115.022 68.8307 115.022L69.018 113.846C69.018 113.846 69.4195 113.046 69.4195 112.886C69.4715 112.479 69.6277 112.093 69.873 111.764C70.1664 111.416 69.5526 110.589 69.5526 110.589L70.0873 109.201V107.677L71.3356 102.15C71.3356 102.15 72.6441 95.7115 72.1906 93.6044C71.7371 91.4972 72.7253 90.4259 72.7253 90.4259C72.6362 90.4729 72.5445 90.5146 72.4507 90.551C72.5756 90.2617 72.6833 89.9652 72.7731 89.6631L75.5817 90.0112V90.0529H76.5949C76.5949 90.0529 76.2745 86.0928 76.2745 84.4963C76.2745 82.8998 77.3542 77.1703 77.3542 77.1703C77.3542 77.1703 77.8348 71.5699 77.3542 71.4095ZM64.8862 66.7866C64.8862 66.943 64.8717 67.1055 64.8613 67.2723L64.8051 67.3577L64.7011 67.2702L64.5742 67.4682L64.5367 67.4869C64.2621 67.3452 64.1207 66.5344 63.923 66.7095L63.896 66.7325C63.8523 66.6824 63.8086 66.6678 63.7628 66.7095L63.7212 66.745C63.7212 66.6845 63.7212 66.622 63.7212 66.5595C64.1018 66.6576 64.4932 66.7073 64.8862 66.7074C64.8883 66.7345 64.8862 66.7616 64.8862 66.7866ZM74.2273 85.2279H74.2877L74.1878 85.4905C74.2003 85.4029 74.2128 85.3175 74.2273 85.2279ZM63.9729 132.492L63.5901 132.396L63.7982 132.361L63.9917 132.488L64.0146 132.504L63.9729 132.492ZM67.8841 131.931C67.7572 131.865 67.6282 131.787 67.5034 131.708C67.545 131.731 67.7094 131.817 67.8841 131.931Z" fill="url(#paint1_linear)"/>
<path d="M75.6086 81.2909L73.0892 87.8687H73.7008L71.3312 89.7612L75.6086 90.2948V81.2909Z" fill="#F86D70"/>
<path opacity="0.1" d="M75.6086 81.2909L73.0892 87.8687L72.4547 87.6978L71.3312 89.7612L75.6086 90.2948V81.2909Z" fill="black"/>
<path d="M71.658 85.4991H75.6087L77.0588 73.546H71.658V85.4991Z" fill="#F86D70"/>
<path opacity="0.1" d="M71.658 85.4991H75.6087L77.0588 73.546H71.658V85.4991Z" fill="black"/>
<path d="M63.9418 76.3764L64.7948 76.2326L66.7546 75.8991C66.7546 75.8991 72.6401 74.5693 73.8551 74.461C74.5911 74.3636 75.3088 74.1586 75.9854 73.8524C76.3037 73.7148 76.5055 73.6106 76.5055 73.6106L74.3856 69.7319L71.0964 67.2891C71.0964 67.2891 69.016 66.8452 68.136 65.6322C67.9396 65.3712 67.8117 65.065 67.7641 64.7416C67.7165 64.4183 67.7506 64.0881 67.8634 63.7814C68.4002 62.114 64.6575 65.3758 64.6575 65.3758C64.6575 65.3758 64.6929 66.1574 64.6575 67.1537C64.6575 67.3496 64.6388 67.5538 64.6242 67.7623C64.6242 67.8998 64.6055 68.0374 64.5909 68.1791C64.4994 69.1691 64.3121 70.1883 63.9418 70.7969C63.0368 72.285 63.9418 76.3764 63.9418 76.3764Z" fill="#FBBEBE"/>
<path opacity="0.1" d="M64.6573 67.2374H64.7406C64.8904 67.2374 65.011 66.9185 65.1566 66.9039C66.3279 66.7914 67.3973 66.5455 68.14 65.7139C67.9441 65.453 67.8165 65.1472 67.7689 64.8242C67.7213 64.5013 67.7552 64.1716 67.8674 63.8652C68.4042 62.1978 64.6615 65.4575 64.6615 65.4575C64.6615 65.4575 64.701 66.2412 64.6573 67.2374Z" fill="black"/>
<path d="M60.1011 62.51C60.1009 63.11 60.2186 63.7042 60.4477 64.2587C60.6768 64.8131 61.0127 65.3168 61.4362 65.7411C61.8597 66.1654 62.3625 66.5019 62.9159 66.7314C63.4693 66.9609 64.0625 67.0789 64.6614 67.0786C64.8112 67.0786 64.9589 67.0786 65.1066 67.0578C65.9853 66.9714 66.8201 66.6314 67.5096 66.0789C68.1992 65.5265 68.7138 64.7854 68.991 63.9456C69.2683 63.1058 69.2962 62.2034 69.0715 61.348C68.8467 60.4926 68.3789 59.721 67.7249 59.1268C67.0709 58.5326 66.2588 58.1413 65.3871 58.0006C64.5154 57.8598 63.6217 57.9756 62.8145 58.3338C62.0072 58.6921 61.3211 59.2774 60.8395 60.0187C60.3578 60.76 60.1013 61.6255 60.1011 62.51Z" fill="#FBBEBE"/>
<path d="M58.701 55.5762C58.5512 55.9638 58.597 56.3973 58.5366 56.8079C58.314 58.2898 56.8099 59.1777 55.4493 59.7988C54.0887 60.4199 52.5533 61.1556 52.1206 62.5875C51.6463 64.1361 52.6823 65.6888 53.4022 67.1415C54.8044 69.9719 55.0041 73.5818 53.1941 76.1704C51.586 78.463 48.7836 79.551 46.1457 80.5056C47.4153 81.5062 48.9932 82.0324 50.6082 81.9937C50.0028 83.7591 47.8495 84.3447 46.0146 84.6699C46.9778 85.5994 48.3571 85.9371 49.6782 86.1413C50.6414 86.2914 51.6296 86.3894 52.5908 86.1955C53.5519 86.0017 54.4632 85.4786 54.9583 84.6324C55.3744 83.9091 55.5159 82.9233 56.2669 82.5585C56.6059 82.4249 56.9711 82.3714 57.3341 82.4022L60.4548 82.4356C61.4263 82.4356 62.5768 82.3605 63.0782 81.5289C63.2631 81.1737 63.3602 80.7791 63.3611 80.3785C63.4963 78.3276 63.1031 76.16 63.9457 74.2883C64.1995 73.7235 62.5706 72.8294 62.7412 72.2312C63.3278 70.1741 63.4755 68.5546 63.4693 66.4141C63.4693 64.7572 64.5449 63.3295 65.4332 61.931C66.3216 60.5324 67.0643 58.7671 66.3632 57.2665C65.5726 55.5928 59.6351 53.1605 58.701 55.5762Z" fill="#3F3D56"/>
<path d="M62.8558 131.892L63.6506 132.419L63.7733 132.5L63.7962 132.515L64.7386 133.14L66.9397 133.511L68.8745 133.378C68.8745 133.378 69.432 132.21 68.5562 132.238C68.2756 132.223 68.0022 132.144 67.7573 132.006L67.6366 131.946C67.5097 131.879 67.3828 131.804 67.258 131.725C66.9979 131.56 66.7525 131.381 66.5548 131.229C66.2636 131.004 66.0701 130.833 66.0701 130.833L62.8558 131.892Z" fill="#FBBEBE"/>
<path opacity="0.1" d="M63.6608 132.419L63.7836 132.5L63.8065 132.515L64.7489 133.14L66.95 133.511L68.8848 133.378C68.8848 133.378 69.4423 132.211 68.5665 132.238C68.2859 132.223 68.0125 132.144 67.7676 132.006C67.9215 132.127 68.0505 132.259 68.063 132.369C68.0984 132.667 66.6317 133.203 66.6317 133.203L64.5637 132.655C64.5637 132.655 64.2121 132.554 63.7316 132.429L63.6858 132.417L63.6608 132.419Z" fill="black"/>
<path d="M60.1241 132.928C60.1241 132.928 61.8197 133.299 62.9598 133.193C64.0998 133.086 66.0637 134.07 66.0637 134.07C66.0637 134.07 66.7274 134.383 68.7683 134.516C70.8092 134.649 70.8092 133.612 70.8092 133.612C70.5762 132.2 67.3515 131.736 67.2517 131.715C67.2912 131.736 67.4597 131.821 67.6303 131.936C67.8591 132.086 68.1067 132.282 68.1254 132.44C68.1608 132.736 66.6941 133.274 66.6941 133.274L64.6262 132.728C64.6262 132.728 64.2746 132.626 63.794 132.501H63.7482C63.0357 132.306 62.3116 132.157 61.5804 132.053C60.69 131.957 60.2344 132.715 60.1408 132.886C60.134 132.9 60.1284 132.914 60.1241 132.928Z" fill="#3F3D56"/>
<path d="M33.399 95.4476L34.2999 96.1396C34.2999 96.1396 34.562 96.1271 34.9531 96.1146H35.0779C35.6376 96.0937 36.4094 96.0729 37.0647 96.0729C37.4884 96.0538 37.9128 96.0775 38.3317 96.1437C38.7811 96.3021 39.58 93.5676 39.58 93.5676L38.6771 93.3592L38.3775 93.2883L38.1694 93.2383L37.4351 93.0653L35.209 93.3196L33.6445 94.3284L33.399 95.4476Z" fill="#FBBEBE"/>
<path opacity="0.1" d="M33.399 95.4476L34.2999 96.1396C34.2999 96.1396 34.562 96.1271 34.9531 96.1146C34.7736 96.0452 34.6257 95.9125 34.537 95.7415C33.9545 94.122 36.8442 93.43 36.8442 93.43L38.1903 93.3717L38.4524 93.3592H38.6604L38.3608 93.2883L38.1528 93.2383L37.4184 93.0653L35.1924 93.3196L33.6279 94.3284L33.399 95.4476Z" fill="black"/>
<path d="M31.6223 96.1787C32.1674 96.6831 35.7374 96.1787 35.8872 96.1662C35.6163 96.1968 35.342 96.1778 35.0779 96.11C34.9472 96.0865 34.8233 96.0341 34.7153 95.9566C34.6073 95.8791 34.518 95.7784 34.4538 95.6619C33.8713 94.0403 36.761 93.3505 36.761 93.3505L38.107 93.2921L38.3671 93.2796L41.6396 93.1379L41.7977 92.2354C41.7977 92.2354 40.7346 92.3355 39.0661 92.4688C38.1278 92.546 36.9857 92.6314 35.752 92.7127C32.3047 92.942 31.485 95.1825 31.485 95.1825C31.485 95.1825 31.0669 95.6619 31.6223 96.1787Z" fill="#3F3D56"/>
<path d="M71.6601 57.0577C71.6822 57.1072 71.7087 57.1546 71.7391 57.1994L72.5338 58.3666L74.6018 58.575L74.6247 57.7538L74.9721 45.3985C74.9721 45.3985 76.4034 37.1116 73.6989 37.5889C70.9943 38.0662 72.692 45.3985 72.692 45.3985C72.692 45.3985 72.3841 49.1168 72.1677 50.2339C71.9576 51.3136 71.0151 55.703 71.6601 57.0577Z" fill="#FBBEBE"/>
<path d="M67.0186 87.746L67.6073 88.7547L68.9242 91.0119C68.9242 91.0119 71.3125 91.8894 71.9242 91.2204C72.2591 90.8556 72.6211 89.5822 72.8749 88.5109C73.083 87.6438 73.2224 86.9123 73.2224 86.9123L67.0186 87.746Z" fill="#FBBEBE"/>
<path opacity="0.1" d="M67.0186 87.7461L67.6073 88.7549C67.6442 88.7231 67.6777 88.6874 67.7072 88.6486C68.3729 87.7982 71.3042 88.4673 72.8749 88.5215C73.083 87.6544 73.2224 86.9228 73.2224 86.9228L67.0186 87.7461Z" fill="black"/>
<path opacity="0.1" d="M37.0646 96.0683C37.4883 96.0492 37.9127 96.073 38.3316 96.1392C38.781 96.2976 39.5799 93.5631 39.5799 93.5631L38.3774 93.2796L41.6499 93.1379L41.808 92.2354C41.808 92.2354 40.7449 92.3355 39.0764 92.4688C38.7316 92.6677 38.424 92.9251 38.1673 93.2296L38.1173 93.2921C37.4204 94.1487 37.1624 95.2534 37.0646 96.0683Z" fill="black"/>
<path opacity="0.1" d="M62.8558 131.892L63.7733 132.5C65.1422 132.252 66.3926 131.862 66.5403 131.25C66.5409 131.24 66.5409 131.23 66.5403 131.221C66.249 130.995 66.0555 130.825 66.0555 130.825L62.8558 131.892Z" fill="black"/>
<path opacity="0.1" d="M60.1429 132.892C61.3518 132.832 62.5563 132.703 63.7504 132.505C63.0372 132.309 62.3125 132.158 61.5805 132.052C60.6922 131.957 60.2366 132.715 60.1429 132.892Z" fill="black"/>
<path d="M37.1645 97.1208C37.1645 97.7856 38.9932 98.2108 38.9932 98.2108L44.5625 103.178C44.5625 103.178 48.0617 104.745 50.2878 107.002C52.5138 109.259 54.4777 107.321 54.4777 107.321C56.8369 106.737 63.6316 98.5026 63.6316 98.5026C63.6316 98.5026 63.7897 107.907 64.108 108.597C64.4263 109.286 64.0019 111.173 63.8167 111.971C63.6999 112.637 63.6553 113.313 63.6836 113.988C63.6836 113.988 61.1392 123.736 61.3514 124.587C61.5637 125.437 59.9721 129.422 59.9721 129.422V132.742C59.9721 132.742 66.203 132.503 66.5463 131.096C66.8895 129.689 64.9839 129.076 64.9839 129.076V128.73C66.2321 128.092 66.4672 123.711 66.4672 123.711C66.4672 123.711 68.325 118.292 68.5892 117.39C68.8534 116.487 68.5892 115.131 68.5892 115.131L68.7744 113.963C68.7744 113.963 69.1717 113.165 69.1717 113.007C69.2237 112.602 69.3792 112.218 69.6232 111.892C69.9145 111.546 69.3049 110.722 69.3049 110.722L69.8354 109.341V107.827L71.0836 102.329C71.0836 102.329 72.3839 95.9265 71.9325 93.8277C71.481 91.7289 72.463 90.668 72.463 90.668C70.3347 91.7852 69.2612 89.2987 68.9096 88.2295C68.8202 87.9543 68.7765 87.7709 68.7765 87.7709C68.7765 87.7709 65.8535 86.6913 63.1323 86.9497C62.5796 86.9946 62.035 87.1102 61.5116 87.2936C58.4888 88.3837 58.0124 92.8981 58.0124 92.8981L55.3349 96.9895C53.9556 100.629 51.8876 101 51.8876 101C51.8876 101 47.0361 97.7335 46.8946 97.5731C46.7531 97.4126 44.9057 96.6164 44.9057 96.6164C44.6873 96.2312 44.3531 95.9249 43.9508 95.741C43.3142 95.4742 43.2622 94.4905 43.2622 94.4905C43.1831 92.1791 41.8309 91.9894 41.8309 91.9894C37.1374 91.5976 37.1645 96.458 37.1645 97.1208Z" fill="#3F3D56"/>
<path d="M64.1558 84.1341H67.0185V75.2365H64.1558V84.1341Z" fill="#F86D70"/>
<path opacity="0.1" d="M64.1558 84.1341H67.0185V75.2365H64.1558V84.1341Z" fill="black"/>
<path opacity="0.1" d="M71.6579 57.0391C71.6574 57.0454 71.6574 57.0516 71.6579 57.0579C71.68 57.1074 71.7065 57.1548 71.7369 57.1996L72.5316 58.3668L74.5996 58.5752L74.6225 57.754C73.9775 57.704 72.5088 57.5268 71.6579 57.0391Z" fill="black"/>
<path d="M71.7392 57.1992C71.7392 57.1992 71.8453 61.872 70.6781 62.5098C69.511 63.1476 69.0575 66.4698 69.0575 66.4698C69.0575 66.4698 72.5942 68.8 73.3827 69.8254C74.1712 70.8509 75.9811 73.2936 75.6087 73.8772C75.2363 74.4608 76.5116 77.1182 76.5116 77.1182C76.5116 77.1182 74.1774 81.8994 74.7079 83.7064C75.2384 85.5134 75.2904 90.2926 75.2904 90.2926H76.2994C76.2994 90.2926 75.9811 86.3617 75.9811 84.7673C75.9811 83.1728 77.0401 77.4891 77.0401 77.4891C77.0401 77.4891 77.5186 71.9118 77.0401 71.7534C76.5616 71.5949 73.753 69.3627 73.5408 68.3519C73.3286 67.341 75.0262 57.9308 75.0262 57.9308C75.0262 57.9308 72.8522 57.837 71.7392 57.1992Z" fill="#F86D70"/>
<path opacity="0.1" d="M64.1018 74.4108C64.1986 75.061 64.435 75.6825 64.7946 76.2324L66.7543 75.8989C66.7543 75.8989 72.6398 74.5692 73.8548 74.4608C74.5908 74.3634 75.3086 74.1584 75.9852 73.8522C75.5188 72.1968 74.6086 70.701 73.3534 69.5274L72.6066 68.8334C71.506 67.8097 70.2305 66.9928 68.841 66.4219C68.9284 66.4949 75.1031 71.7763 73.7508 72.8121C72.3985 73.848 68.7578 71.3261 68.7578 71.3261L64.6178 67.7621L64.468 67.6328L64.2287 68.0059C64.3504 68.0561 64.4692 68.1132 64.5845 68.1768C65.9954 68.9527 67.0426 70.2565 67.4971 71.8034C68.3479 74.6692 64.1018 74.4108 64.1018 74.4108Z" fill="black"/>
<path d="M62.8287 87.6919C62.8287 87.6919 66.7523 89.87 67.7052 88.6486C67.9132 88.3797 68.3522 88.263 68.8993 88.2317C68.8099 87.9566 68.7662 87.7732 68.7662 87.7732C68.7662 87.7732 65.8432 86.6936 63.122 86.952C62.9431 87.4022 62.8287 87.6919 62.8287 87.6919Z" fill="#444053"/>
<path d="M64.6345 67.6376L68.9243 71.335C68.9243 71.335 72.5505 73.8652 73.9173 72.821C75.2842 71.7768 69.0054 66.4287 69.0054 66.4287C70.3919 67.0014 71.6661 67.8157 72.7689 68.8339L73.5158 69.528C75.4797 71.3517 75.9228 71.3517 75.9894 74.032C76.0061 74.6927 75.7814 75.641 75.6087 75.8119C74.9721 76.4372 74.5269 80.9787 74.6247 81.5102C74.7224 82.0417 73.4388 86.629 73.8549 87.9046C74.271 89.1801 68.6539 87.2668 67.7031 88.4903C66.7523 89.7137 62.8287 87.5336 62.8287 87.5336C62.8287 87.5336 65.0027 81.9541 65.5332 81.5831C66.0637 81.2121 66.7003 78.3422 65.5332 77.0145C64.3661 75.6869 64.2621 74.4113 64.2621 74.4113C64.2621 74.4113 68.5061 74.6739 67.6553 71.8081C67.4159 70.9774 67.0006 70.2083 66.4376 69.5529C65.8747 68.8976 65.1774 68.3716 64.3931 68.0106L64.6345 67.6376Z" fill="#E8E8F0"/>
<path opacity="0.1" d="M70.3596 77.0417C70.3596 77.0417 68.714 80.1492 66.5857 80.9558C66.5171 80.9808 66.4505 81.0038 66.3777 81.0246C64.1558 81.702 70.5261 78.0046 70.3596 77.0417Z" fill="black"/>
<path d="M47.3463 49.5484C47.3463 49.5484 48.141 51.568 48.7776 52.2579C49.4142 52.9477 54.1326 59.8549 54.1326 59.8549L54.532 60.6886L54.8753 61.3993L57.8982 61.0804L58.1062 59.859L57.9897 59.7173C57.6859 59.3526 56.8579 58.373 56.3025 57.9457C55.6139 57.4163 54.2345 55.6635 54.2345 55.6635C54.2345 55.6635 49.9405 51.1991 49.6222 49.9777C49.3039 48.7563 45.0079 41.4324 44.055 42.6996C43.1022 43.9668 47.3463 49.5484 47.3463 49.5484Z" fill="#FBBEBE"/>
<g opacity="0.1">
<path opacity="0.1" d="M56.1171 82.4022C55.7543 82.3708 55.3891 82.4235 55.0499 82.5564C54.3009 82.9212 54.1594 83.907 53.7434 84.6302C53.2565 85.4764 52.3287 85.9996 51.3738 86.1934C51.1839 86.2303 50.9923 86.2568 50.7996 86.2726C51.4077 86.3319 52.0212 86.3053 52.622 86.1934C53.5769 85.9996 54.5048 85.4764 54.9916 84.6302C55.4077 83.907 55.5492 82.9212 56.2981 82.5564C56.4948 82.4678 56.7067 82.4182 56.9222 82.4105L56.1171 82.4022Z" fill="black"/>
<path opacity="0.1" d="M63.5067 66.4137C63.5067 64.7568 64.5823 63.3291 65.4685 61.9306C66.3548 60.532 67.0996 58.7667 66.3985 57.2661C65.7993 55.9843 62.1877 54.2648 60.1031 54.6045C62.144 54.8692 64.6593 56.2156 65.1502 57.2661C65.8513 58.7667 65.1065 60.532 64.2203 61.9306C63.334 63.3291 62.2543 64.7568 62.2585 66.4137C62.2585 68.5521 62.1149 70.1653 61.5282 72.2308C61.3597 72.8248 62.9845 73.7231 62.7349 74.2858C61.8902 76.1616 62.2855 78.3251 62.1503 80.376C62.1475 80.7766 62.0498 81.1709 61.8653 81.5264C61.4492 82.2122 60.5962 82.3893 59.7661 82.4268H60.4922C61.4616 82.4268 62.6121 82.3518 63.1135 81.5202C63.298 81.1647 63.3957 80.7704 63.3985 80.3697C63.5337 78.3188 63.1385 76.1533 63.9831 74.2796C64.2369 73.7169 62.608 72.8206 62.7765 72.2245C63.3632 70.1737 63.5109 68.5521 63.5067 66.4137Z" fill="black"/>
</g>
<path opacity="0.1" d="M54.5319 60.6844L54.8751 61.3951L57.898 61.0762L58.106 59.8548L57.9895 59.7131C57.6671 59.8715 55.2517 61.0366 54.5319 60.6844Z" fill="black"/>
<path opacity="0.1" d="M65.6932 68.6735C65.6932 68.6735 64.9505 67.5063 64.5261 67.8231C64.1017 68.1399 63.9374 66.8664 63.694 67.079C63.4505 67.2916 62.7411 67.8835 62.4457 67.0561C62.2148 66.3975 59.7016 62.2311 58.6822 60.5554C58.4201 60.1219 58.2557 59.8551 58.2557 59.8551C58.2557 59.8551 55.3931 61.2891 54.7045 60.8118V61.8205L55.287 61.8747L58.4076 67.7105C58.4076 67.7105 59.3896 69.2758 59.323 69.8219C59.2564 70.3679 60.5816 72.7585 60.7939 72.917C61.0061 73.0754 63.2904 75.7327 63.2904 75.7327C63.2904 75.7327 64.4575 81.4706 63.4485 83.0651C62.4395 84.6595 60.6919 85.8267 60.6919 85.8267C60.6919 85.8267 60.1656 87.3669 60.2425 87.5274C60.3195 87.6879 59.6309 88.3777 59.9492 88.5903C60.2675 88.8029 60.6919 90.289 60.6919 90.289C60.6919 90.289 62.1773 87.8984 62.9804 87.5274C63.7834 87.1564 64.8111 82.2668 64.8111 82.2668C64.8111 82.2668 65.1045 79.3864 65.1274 77.5273C65.1502 75.6681 65.0566 68.6735 65.6932 68.6735Z" fill="black"/>
<path d="M65.5331 68.6735C65.5331 68.6735 64.7925 67.5063 64.3681 67.8231C63.9437 68.1399 63.7772 66.8664 63.5359 67.079C63.2946 67.2916 62.5852 67.8835 62.2877 67.0561C62.0546 66.3975 59.5415 62.2311 58.5242 60.5554L58.0977 59.8551C58.0977 59.8551 55.235 61.2891 54.5443 60.8118V61.8205L55.1289 61.8747L58.2495 67.7105C58.2495 67.7105 59.2336 69.2758 59.1649 69.8219C59.0963 70.3679 60.4132 72.7585 60.6358 72.917C60.8584 73.0754 63.1323 75.7327 63.1323 75.7327C63.1323 75.7327 64.2994 81.4706 63.2925 83.0651C62.7606 83.8659 62.1135 84.5837 61.3723 85.1951C60.7496 85.7097 60.3114 86.4136 60.124 87.2002C60.0879 87.3074 60.0751 87.4211 60.0866 87.5336C60.1635 87.692 59.4749 88.384 59.7932 88.5966C60.1115 88.8092 60.5401 90.3015 60.5401 90.3015C60.5401 90.3015 62.0255 87.9109 62.8286 87.5399C63.6316 87.1689 64.6614 82.2793 64.6614 82.2793C64.6614 82.2793 64.9527 79.3989 64.9776 77.5398C65.0026 75.6806 64.909 68.6735 65.5331 68.6735Z" fill="#F86D70"/>
<path opacity="0.1" d="M58.2684 92.8463C58.2684 92.8463 60.4965 93.2632 61.389 93.9072C62.2815 94.5512 57.9958 92.8984 57.9958 92.8984L58.2684 92.8463Z" fill="black"/>
<path opacity="0.1" d="M63.6254 98.5024C63.6254 98.5024 65.9492 100.443 65.5331 102.196C65.117 103.948 64.0435 108.359 64.0435 108.359L63.6254 98.5024Z" fill="black"/>
<path opacity="0.1" d="M43.3018 94.7719C43.3018 94.7719 40.0272 95.1304 40.2394 95.5556C40.4516 95.9808 43.3018 95.1638 43.3018 95.1638V94.7719Z" fill="black"/>
<path opacity="0.1" d="M68.446 110.908C68.446 110.908 68.654 111.172 67.4391 110.908C66.2241 110.643 67.1208 109.826 67.1208 109.826L68.446 110.908Z" fill="black"/>
<path opacity="0.1" d="M68.0298 114.574C68.0298 114.574 66.3654 114.839 65.4729 114.574C64.5804 114.31 68.0298 114.574 68.0298 114.574Z" fill="black"/>
<path opacity="0.1" d="M64.6055 128.918C64.6055 128.918 64.3142 128.599 62.8558 129.182C61.3975 129.766 60.8149 129.793 60.3905 129.599C59.9661 129.405 64.6055 128.918 64.6055 128.918Z" fill="black"/>
<path opacity="0.1" d="M66.224 94.3196L64.1561 97.2021C64.1561 97.2021 65.2691 94.6781 66.224 94.3196Z" fill="black"/>
<path opacity="0.1" d="M62.2047 67.8227C62.2047 67.8227 62.1152 68.7794 60.7817 69.1525C59.4481 69.5255 59.1943 69.8278 59.1943 69.8278" fill="black"/>
<path opacity="0.1" d="M58.7387 60.8889C58.7387 60.8889 56.9787 62.1395 55.1417 61.8748L58.7387 60.8889Z" fill="black"/>
<path opacity="0.1" d="M60.0785 87.6648C60.0785 87.6648 60.5924 87.9878 61.826 86.5748L60.0785 87.6648Z" fill="black"/>
<path opacity="0.1" d="M72.8915 72.6813C72.9415 72.4229 72.7626 72.1832 72.594 71.981L72.2487 71.5642C72.1812 71.4789 72.1052 71.4007 72.0219 71.3308C71.8139 71.1703 71.5476 71.1223 71.3312 70.9785" fill="black"/>
<path opacity="0.1" d="M184.594 0.0232161C184.594 0.0232161 167.079 -1.03557 169.138 11.2614C169.138 11.2614 168.722 13.4352 170.694 14.4211C170.694 14.4211 170.726 13.5103 172.492 13.8208C173.121 13.9252 173.76 13.956 174.395 13.9125C175.255 13.8531 176.071 13.5151 176.721 12.9496C176.721 12.9496 181.646 10.9112 183.56 2.84943C183.56 2.84943 184.976 1.09034 184.92 0.638064L181.964 1.90319C181.964 1.90319 182.975 4.03952 182.172 5.81528C182.172 5.81528 182.076 1.98031 181.508 2.06367C181.394 2.08243 179.973 2.80358 179.973 2.80358C179.973 2.80358 181.71 6.52392 180.4 9.22925C180.4 9.22925 180.897 4.64395 179.43 3.07244L177.35 4.28963C177.35 4.28963 179.38 8.13295 178.003 11.2697C178.003 11.2697 178.357 6.45931 176.911 4.58559L175.026 6.05914C175.026 6.05914 176.934 9.84826 175.771 12.4494C175.771 12.4494 175.619 6.84906 174.618 6.42596C174.618 6.42596 172.968 7.88492 172.717 8.48101C172.717 8.48101 174.023 11.2322 173.212 12.6828C173.212 12.6828 172.714 8.95205 172.307 8.9312C172.307 8.9312 170.663 11.4031 170.493 13.0997C170.493 13.0997 170.563 10.5798 171.909 8.69777C171.909 8.69777 170.32 8.9708 169.392 10.0025C169.392 10.0025 169.648 8.25591 172.315 8.10377C172.315 8.10377 173.674 6.22796 174.036 6.11333C174.036 6.11333 171.385 5.8924 169.777 6.60521C169.777 6.60521 171.192 4.95658 174.522 5.7069L176.384 4.18333C176.384 4.18333 172.893 3.70605 171.412 4.23336C171.412 4.23336 173.116 2.7744 176.886 3.83735L178.912 2.62433C178.912 2.62433 175.935 1.98239 174.162 2.20749C174.162 2.20749 176.035 1.19664 179.507 2.29294L180.963 1.64058C180.963 1.64058 178.783 1.21123 178.144 1.14245C177.506 1.07367 177.472 0.898593 177.472 0.898593C178.854 0.667838 180.272 0.825856 181.569 1.35504C181.569 1.35504 184.648 0.217049 184.594 0.0232161Z" fill="#F9A826"/>
<path opacity="0.1" d="M162.991 3.15126C162.991 3.15126 155.085 2.67189 156.011 8.22844C156.011 8.22844 155.826 9.2122 156.712 9.65822C156.712 9.65822 156.726 9.24138 157.525 9.38519C157.809 9.43303 158.097 9.44702 158.384 9.42687C158.773 9.40043 159.142 9.24745 159.435 8.99127C159.435 8.99127 161.661 8.07213 162.527 4.4289C162.527 4.4289 163.165 3.63272 163.14 3.42847L161.805 3.99954C161.805 3.99954 162.262 4.96663 161.902 5.76905C161.902 5.76905 161.859 4.03498 161.603 4.07666C161.551 4.07666 160.908 4.41014 160.908 4.41014C160.908 4.41014 161.694 6.09211 161.102 7.31555C161.102 7.31555 161.326 5.24383 160.663 4.53311L159.722 5.08334C159.722 5.08334 160.642 6.8195 160.018 8.23678C160.018 8.23678 160.178 6.06293 159.525 5.21673L158.674 5.88994C158.674 5.88994 159.535 7.60318 159.011 8.7766C159.011 8.7766 158.942 6.24634 158.488 6.05668C158.488 6.05668 157.744 6.71529 157.629 6.98624C157.629 6.98624 158.22 8.23678 157.854 8.88289C157.854 8.88289 157.629 7.19675 157.438 7.1905C157.438 7.1905 156.697 8.30764 156.618 9.0663C156.655 8.35827 156.876 7.67219 157.259 7.07587C156.83 7.1572 156.435 7.36221 156.121 7.6657C156.121 7.6657 156.237 6.87786 157.442 6.807C157.442 6.807 158.066 5.9608 158.22 5.9087C158.22 5.9087 157.022 5.80866 156.296 6.13171C156.296 6.13171 156.934 5.38556 158.441 5.71486L159.273 5.02707C159.273 5.02707 157.696 4.81865 157.026 5.05C157.026 5.05 157.796 4.39138 159.5 4.87075L160.415 4.3226C160.415 4.3226 159.071 4.03081 158.268 4.1371C158.268 4.1371 159.115 3.67857 160.683 4.17462L161.339 3.88074C161.339 3.88074 160.353 3.68483 160.063 3.65565C159.774 3.62647 159.76 3.54518 159.76 3.54518C160.384 3.4411 161.025 3.51327 161.611 3.75361C161.611 3.75361 163.016 3.2388 162.991 3.15126Z" fill="#F9A826"/>
<path d="M190.606 135.633C195.226 135.633 198.971 134.998 198.971 134.216C198.971 133.433 195.226 132.798 190.606 132.798C185.986 132.798 182.241 133.433 182.241 134.216C182.241 134.998 185.986 135.633 190.606 135.633Z" fill="#F9A826"/>
<path d="M194.066 131.898C194.448 131.586 194.726 131.165 194.863 130.691C194.967 130.214 194.763 129.649 194.305 129.464C193.793 129.268 193.246 129.624 192.832 129.982C192.418 130.341 191.942 130.752 191.401 130.674C191.679 130.421 191.888 130.099 192.006 129.741C192.124 129.383 192.148 129 192.075 128.63C192.051 128.476 191.986 128.332 191.888 128.213C191.602 127.909 191.089 128.038 190.747 128.278C189.666 129.04 189.364 130.514 189.358 131.837C189.25 131.36 189.341 130.862 189.339 130.378C189.337 129.895 189.202 129.336 188.788 129.08C188.532 128.942 188.245 128.875 187.956 128.884C187.471 128.865 186.928 128.915 186.597 129.272C186.181 129.714 186.291 130.456 186.649 130.939C187.007 131.423 187.554 131.733 188.057 132.069C188.46 132.309 188.804 132.638 189.062 133.03C189.093 133.084 189.119 133.142 189.137 133.203H192.187C192.869 132.855 193.501 132.416 194.066 131.898Z" fill="#F9A826"/>
</g>
<defs>
<linearGradient id="paint0_linear" x1="168.204" y1="105.239" x2="168.204" y2="21.3908" gradientUnits="userSpaceOnUse">
<stop stop-color="#808080" stop-opacity="0.25"/>
<stop offset="0.54" stop-color="#808080" stop-opacity="0.12"/>
<stop offset="1" stop-color="#808080" stop-opacity="0.1"/>
</linearGradient>
<linearGradient id="paint1_linear" x1="8290.77" y1="52227.6" x2="18566.3" y2="52227.6" gradientUnits="userSpaceOnUse">
<stop stop-color="#808080" stop-opacity="0.25"/>
<stop offset="0.54" stop-color="#808080" stop-opacity="0.12"/>
<stop offset="1" stop-color="#808080" stop-opacity="0.1"/>
</linearGradient>
<clipPath id="clip0">
<rect width="238" height="136" fill="white"/>
</clipPath>
</defs>
</svg>
